solid OpenSCAD_Model
  facet normal -1 0 0
    outer loop
      vertex -10 21.75 -2
      vertex -10 21.75 6
      vertex -10 23.25 -2
    endloop
  endfacet
  facet normal -1 0 0
    outer loop
      vertex -10 23.25 -2
      vertex -10 21.75 6
      vertex -10 23.25 6
    endloop
  endfacet
  facet normal -0.866025 -0.5 0
    outer loop
      vertex -10 21.75 -2
      vertex -9.125 20.2345 -2
      vertex -10 21.75 6
    endloop
  endfacet
  facet normal -0.866025 -0.5 0
    outer loop
      vertex -10 21.75 6
      vertex -9.125 20.2345 -2
      vertex -9.125 20.2345 6
    endloop
  endfacet
  facet normal 0 0 -1
    outer loop
      vertex -10 21.75 -2
      vertex -10 23.25 -2
      vertex -9.125 20.2345 -2
    endloop
  endfacet
  facet normal 0 0 -1
    outer loop
      vertex -9.125 20.2345 -2
      vertex -10 23.25 -2
      vertex -9.125 24.7655 -2
    endloop
  endfacet
  facet normal 0 0 -1
    outer loop
      vertex -9.125 20.2345 -2
      vertex -9.125 24.7655 -2
      vertex -8.25 24.7655 -2
    endloop
  endfacet
  facet normal 0 0 -1
    outer loop
      vertex -8.25 24.7655 -2
      vertex -8.25 25 -2
      vertex 8.25 25 -2
    endloop
  endfacet
  facet normal 0 0 -1
    outer loop
      vertex -4.75279 21.7392 -2
      vertex 8.25 25 -2
      vertex -9.125 20.2345 -2
    endloop
  endfacet
  facet normal 0 0 -1
    outer loop
      vertex -9.125 20.2345 -2
      vertex 8.25 25 -2
      vertex 8.25 24.7655 -2
    endloop
  endfacet
  facet normal 0 0 -1
    outer loop
      vertex -9.125 20.2345 -2
      vertex 8.25 24.7655 -2
      vertex 9.125 24.7655 -2
    endloop
  endfacet
  facet normal 0 0 -1
    outer loop
      vertex 5.76084 22.7472 -2
      vertex 9.125 24.7655 -2
      vertex 10 23.25 -2
    endloop
  endfacet
  facet normal 0 0 -1
    outer loop
      vertex 5.76084 22.2528 -2
      vertex 10 23.25 -2
      vertex 10 21.75 -2
    endloop
  endfacet
  facet normal 0 0 -1
    outer loop
      vertex 8.25 20.2345 -2
      vertex 10 21.75 -2
      vertex 9.125 20.2345 -2
    endloop
  endfacet
  facet normal 0 0 -1
    outer loop
      vertex -9.125 20.2345 -2
      vertex 10 21.75 -2
      vertex -8.25 20.2345 -2
    endloop
  endfacet
  facet normal 0 0 -1
    outer loop
      vertex -4.52977 21.8528 -2
      vertex 8.25 25 -2
      vertex -4.75279 21.7392 -2
    endloop
  endfacet
  facet normal 0 0 -1
    outer loop
      vertex -5 20 -2
      vertex 5 20 -2
      vertex 5 -21 -2
    endloop
  endfacet
  facet normal 0 0 -1
    outer loop
      vertex -8.25 20.2345 -2
      vertex -5 20 -2
      vertex -8.25 20 -2
    endloop
  endfacet
  facet normal 0 0 -1
    outer loop
      vertex 1 -25 -2
      vertex -1 -25 -2
      vertex -1 -24.9123 -2
    endloop
  endfacet
  facet normal 0 0 -1
    outer loop
      vertex -3.99404 -23.6525 -2
      vertex -4.88377 -21.9573 -2
      vertex -4.88377 -21 -2
    endloop
  endfacet
  facet normal 0 0 -1
    outer loop
      vertex -5 20 -2
      vertex 5 -21 -2
      vertex 3.42579 -18.4747 -2
    endloop
  endfacet
  facet normal 0 0 -1
    outer loop
      vertex -8.25 20.2345 -2
      vertex 8.25 20 -2
      vertex 5 20 -2
    endloop
  endfacet
  facet normal 0 0 -1
    outer loop
      vertex -8.25 20.2345 -2
      vertex 5 20 -2
      vertex -5 20 -2
    endloop
  endfacet
  facet normal 0 0 -1
    outer loop
      vertex 8.25 20.2345 -2
      vertex 8.25 20 -2
      vertex -8.25 20.2345 -2
    endloop
  endfacet
  facet normal 0 0 -1
    outer loop
      vertex 8.25 20.2345 -2
      vertex -8.25 20.2345 -2
      vertex 10 21.75 -2
    endloop
  endfacet
  facet normal 0 0 -1
    outer loop
      vertex -5 23.3 -2
      vertex -8.25 24.7655 -2
      vertex -4.75279 23.2608 -2
    endloop
  endfacet
  facet normal 0 0 -1
    outer loop
      vertex -8.25 24.7655 -2
      vertex -5.8 22.5 -2
      vertex -9.125 20.2345 -2
    endloop
  endfacet
  facet normal 0 0 -1
    outer loop
      vertex -4.35279 22.9702 -2
      vertex 8.25 25 -2
      vertex -4.23915 22.7472 -2
    endloop
  endfacet
  facet normal 0 0 -1
    outer loop
      vertex -5.8 22.5 -2
      vertex -5.76084 22.2528 -2
      vertex -9.125 20.2345 -2
    endloop
  endfacet
  facet normal 0 0 -1
    outer loop
      vertex -4.23915 22.7472 -2
      vertex 8.25 25 -2
      vertex -4.2 22.5 -2
    endloop
  endfacet
  facet normal 0 0 -1
    outer loop
      vertex -5.76084 22.2528 -2
      vertex -5.64721 22.0298 -2
      vertex -9.125 20.2345 -2
    endloop
  endfacet
  facet normal 0 0 -1
    outer loop
      vertex -4.2 22.5 -2
      vertex 8.25 25 -2
      vertex -4.23915 22.2528 -2
    endloop
  endfacet
  facet normal 0 0 -1
    outer loop
      vertex -5.64721 22.0298 -2
      vertex -5.47023 21.8528 -2
      vertex -9.125 20.2345 -2
    endloop
  endfacet
  facet normal 0 0 -1
    outer loop
      vertex -4.23915 22.2528 -2
      vertex 8.25 25 -2
      vertex -4.35279 22.0298 -2
    endloop
  endfacet
  facet normal 0 0 -1
    outer loop
      vertex -5.47023 21.8528 -2
      vertex -5.24721 21.7392 -2
      vertex -9.125 20.2345 -2
    endloop
  endfacet
  facet normal 0 0 -1
    outer loop
      vertex -4.35279 22.0298 -2
      vertex 8.25 25 -2
      vertex -4.52977 21.8528 -2
    endloop
  endfacet
  facet normal 0 0 -1
    outer loop
      vertex -5.24721 21.7392 -2
      vertex -5 21.7 -2
      vertex -9.125 20.2345 -2
    endloop
  endfacet
  facet normal 0 0 -1
    outer loop
      vertex -5 21.7 -2
      vertex -4.75279 21.7392 -2
      vertex -9.125 20.2345 -2
    endloop
  endfacet
  facet normal 0 0 -1
    outer loop
      vertex -4.52977 23.1472 -2
      vertex 8.25 25 -2
      vertex -4.35279 22.9702 -2
    endloop
  endfacet
  facet normal 0 0 -1
    outer loop
      vertex -4.75279 23.2608 -2
      vertex 8.25 25 -2
      vertex -4.52977 23.1472 -2
    endloop
  endfacet
  facet normal 0 0 -1
    outer loop
      vertex -8.25 24.7655 -2
      vertex 8.25 25 -2
      vertex -4.75279 23.2608 -2
    endloop
  endfacet
  facet normal 0 0 -1
    outer loop
      vertex -5.24721 23.2608 -2
      vertex -8.25 24.7655 -2
      vertex -5 23.3 -2
    endloop
  endfacet
  facet normal 0 0 -1
    outer loop
      vertex -3.03381 -22.2042 -2
      vertex -2.41842 -24.7401 -2
      vertex -3.42579 -21.5253 -2
    endloop
  endfacet
  facet normal 0 0 -1
    outer loop
      vertex -8.25 24.7655 -2
      vertex -5.24721 23.2608 -2
      vertex -5.47023 23.1472 -2
    endloop
  endfacet
  facet normal 0 0 -1
    outer loop
      vertex -8.25 24.7655 -2
      vertex -5.47023 23.1472 -2
      vertex -5.64721 22.9702 -2
    endloop
  endfacet
  facet normal 0 0 -1
    outer loop
      vertex -8.25 24.7655 -2
      vertex -5.64721 22.9702 -2
      vertex -5.76084 22.7472 -2
    endloop
  endfacet
  facet normal 0 0 -1
    outer loop
      vertex -8.25 24.7655 -2
      vertex -5.76084 22.7472 -2
      vertex -5.8 22.5 -2
    endloop
  endfacet
  facet normal 0 0 -1
    outer loop
      vertex -3.66805 -20.7797 -2
      vertex -3.99404 -23.6525 -2
      vertex -3.75 -20 -2
    endloop
  endfacet
  facet normal 0 0 -1
    outer loop
      vertex -2.41842 -24.7401 -2
      vertex -3.99404 -23.6525 -2
      vertex -3.66805 -20.7797 -2
    endloop
  endfacet
  facet normal 0 0 -1
    outer loop
      vertex -2.41842 -24.7401 -2
      vertex -3.66805 -20.7797 -2
      vertex -3.42579 -21.5253 -2
    endloop
  endfacet
  facet normal 0 0 -1
    outer loop
      vertex -2.50924 -22.7868 -2
      vertex -2.41842 -24.7401 -2
      vertex -3.03381 -22.2042 -2
    endloop
  endfacet
  facet normal 0 0 -1
    outer loop
      vertex 1 -25 -2
      vertex -1 -24.9123 -2
      vertex -1.15881 -23.5665 -2
    endloop
  endfacet
  facet normal 0 0 -1
    outer loop
      vertex 1 -25 -2
      vertex -1.15881 -23.5665 -2
      vertex -0.391982 -23.7295 -2
    endloop
  endfacet
  facet normal 0 0 -1
    outer loop
      vertex 1 -25 -2
      vertex -0.391982 -23.7295 -2
      vertex 0.391982 -23.7295 -2
    endloop
  endfacet
  facet normal 0 0 -1
    outer loop
      vertex 3.27226 -24.2919 -2
      vertex 1.48215 -24.9708 -2
      vertex 1.15881 -23.5665 -2
    endloop
  endfacet
  facet normal 0 0 -1
    outer loop
      vertex 3.27226 -24.2919 -2
      vertex 1.15881 -23.5665 -2
      vertex 1.875 -23.2476 -2
    endloop
  endfacet
  facet normal 0 0 -1
    outer loop
      vertex 3.27226 -24.2919 -2
      vertex 1.875 -23.2476 -2
      vertex 2.50924 -22.7868 -2
    endloop
  endfacet
  facet normal 0 0 -1
    outer loop
      vertex 4.54182 -22.8589 -2
      vertex 3.27226 -24.2919 -2
      vertex 3.03381 -22.2042 -2
    endloop
  endfacet
  facet normal 0 0 -1
    outer loop
      vertex 4.54182 -22.8589 -2
      vertex 3.03381 -22.2042 -2
      vertex 3.42579 -21.5253 -2
    endloop
  endfacet
  facet normal 0 0 -1
    outer loop
      vertex 4.54182 -22.8589 -2
      vertex 3.42579 -21.5253 -2
      vertex 3.66805 -20.7797 -2
    endloop
  endfacet
  facet normal 0 0 -1
    outer loop
      vertex 5 -21 -2
      vertex 4.54182 -22.8589 -2
      vertex 3.75 -20 -2
    endloop
  endfacet
  facet normal 0 0 -1
    outer loop
      vertex 5 -21 -2
      vertex 3.75 -20 -2
      vertex 3.66805 -19.2203 -2
    endloop
  endfacet
  facet normal 0 0 -1
    outer loop
      vertex 5 -21 -2
      vertex 3.66805 -19.2203 -2
      vertex 3.42579 -18.4747 -2
    endloop
  endfacet
  facet normal 0 0 -1
    outer loop
      vertex 3.75 -20 -2
      vertex 4.54182 -22.8589 -2
      vertex 3.66805 -20.7797 -2
    endloop
  endfacet
  facet normal 0 0 -1
    outer loop
      vertex -5 20 -2
      vertex 3.42579 -18.4747 -2
      vertex 3.03381 -17.7958 -2
    endloop
  endfacet
  facet normal 0 0 -1
    outer loop
      vertex 2.50924 -17.2132 -2
      vertex -5 20 -2
      vertex 3.03381 -17.7958 -2
    endloop
  endfacet
  facet normal 0 0 -1
    outer loop
      vertex -1.15881 -23.5665 -2
      vertex -1 -24.9123 -2
      vertex -1.875 -23.2476 -2
    endloop
  endfacet
  facet normal 0 0 -1
    outer loop
      vertex 4.52977 23.1472 -2
      vertex -9.125 20.2345 -2
      vertex 4.75279 23.2608 -2
    endloop
  endfacet
  facet normal 0 0 -1
    outer loop
      vertex 5.47023 21.8528 -2
      vertex 10 21.75 -2
      vertex 5.24721 21.7392 -2
    endloop
  endfacet
  facet normal 0 0 -1
    outer loop
      vertex -9.125 20.2345 -2
      vertex 4.23915 22.2528 -2
      vertex 4.35279 22.0298 -2
    endloop
  endfacet
  facet normal 0 0 -1
    outer loop
      vertex -9.125 20.2345 -2
      vertex 4.35279 22.0298 -2
      vertex 4.52977 21.8528 -2
    endloop
  endfacet
  facet normal 0 0 -1
    outer loop
      vertex -9.125 20.2345 -2
      vertex 4.52977 21.8528 -2
      vertex 4.75279 21.7392 -2
    endloop
  endfacet
  facet normal 0 0 -1
    outer loop
      vertex -9.125 20.2345 -2
      vertex 4.75279 21.7392 -2
      vertex 5 21.7 -2
    endloop
  endfacet
  facet normal 0 0 -1
    outer loop
      vertex -9.125 20.2345 -2
      vertex 5 21.7 -2
      vertex 10 21.75 -2
    endloop
  endfacet
  facet normal 0 0 -1
    outer loop
      vertex 5 21.7 -2
      vertex 5.24721 21.7392 -2
      vertex 10 21.75 -2
    endloop
  endfacet
  facet normal 0 0 -1
    outer loop
      vertex 5.64721 22.0298 -2
      vertex 10 21.75 -2
      vertex 5.47023 21.8528 -2
    endloop
  endfacet
  facet normal 0 0 -1
    outer loop
      vertex 5.76084 22.2528 -2
      vertex 10 21.75 -2
      vertex 5.64721 22.0298 -2
    endloop
  endfacet
  facet normal 0 0 -1
    outer loop
      vertex 5.8 22.5 -2
      vertex 10 23.25 -2
      vertex 5.76084 22.2528 -2
    endloop
  endfacet
  facet normal 0 0 -1
    outer loop
      vertex 5.76084 22.7472 -2
      vertex 10 23.25 -2
      vertex 5.8 22.5 -2
    endloop
  endfacet
  facet normal 0 0 -1
    outer loop
      vertex 5.64721 22.9702 -2
      vertex 9.125 24.7655 -2
      vertex 5.76084 22.7472 -2
    endloop
  endfacet
  facet normal 0 0 -1
    outer loop
      vertex 5.47023 23.1472 -2
      vertex 9.125 24.7655 -2
      vertex 5.64721 22.9702 -2
    endloop
  endfacet
  facet normal 0 0 -1
    outer loop
      vertex 5.24721 23.2608 -2
      vertex 9.125 24.7655 -2
      vertex 5.47023 23.1472 -2
    endloop
  endfacet
  facet normal 0 0 -1
    outer loop
      vertex 5 23.3 -2
      vertex 9.125 24.7655 -2
      vertex 5.24721 23.2608 -2
    endloop
  endfacet
  facet normal 0 0 -1
    outer loop
      vertex 4.75279 23.2608 -2
      vertex 9.125 24.7655 -2
      vertex 5 23.3 -2
    endloop
  endfacet
  facet normal 0 0 -1
    outer loop
      vertex -9.125 20.2345 -2
      vertex 9.125 24.7655 -2
      vertex 4.75279 23.2608 -2
    endloop
  endfacet
  facet normal 0 0 -1
    outer loop
      vertex 4.35279 22.9702 -2
      vertex -9.125 20.2345 -2
      vertex 4.52977 23.1472 -2
    endloop
  endfacet
  facet normal 0 0 -1
    outer loop
      vertex 4.23915 22.7472 -2
      vertex -9.125 20.2345 -2
      vertex 4.35279 22.9702 -2
    endloop
  endfacet
  facet normal 0 0 -1
    outer loop
      vertex -9.125 20.2345 -2
      vertex 4.23915 22.7472 -2
      vertex 4.2 22.5 -2
    endloop
  endfacet
  facet normal 0 0 -1
    outer loop
      vertex -2.41842 -24.7401 -2
      vertex -2.50924 -22.7868 -2
      vertex -1.875 -23.2476 -2
    endloop
  endfacet
  facet normal 0 0 -1
    outer loop
      vertex 1.15881 -23.5665 -2
      vertex 1 -24.9123 -2
      vertex 0.391982 -23.7295 -2
    endloop
  endfacet
  facet normal 0 0 -1
    outer loop
      vertex -2.41842 -24.7401 -2
      vertex -1.875 -23.2476 -2
      vertex -1 -24.9123 -2
    endloop
  endfacet
  facet normal 0 0 -1
    outer loop
      vertex -1.875 -16.7524 -2
      vertex -5 20 -2
      vertex -1.15881 -16.4335 -2
    endloop
  endfacet
  facet normal 0 0 -1
    outer loop
      vertex -5 20 -2
      vertex 2.50924 -17.2132 -2
      vertex 1.875 -16.7524 -2
    endloop
  endfacet
  facet normal 0 0 -1
    outer loop
      vertex -5 20 -2
      vertex 1.875 -16.7524 -2
      vertex 1.15881 -16.4335 -2
    endloop
  endfacet
  facet normal 0 0 -1
    outer loop
      vertex -5 20 -2
      vertex 1.15881 -16.4335 -2
      vertex 0.391982 -16.2705 -2
    endloop
  endfacet
  facet normal 0 0 -1
    outer loop
      vertex -5 20 -2
      vertex 0.391982 -16.2705 -2
      vertex -0.391982 -16.2705 -2
    endloop
  endfacet
  facet normal 0 0 -1
    outer loop
      vertex 1.15881 -23.5665 -2
      vertex 1.48215 -24.9708 -2
      vertex 1 -24.9123 -2
    endloop
  endfacet
  facet normal 0 0 -1
    outer loop
      vertex 3.03381 -22.2042 -2
      vertex 3.27226 -24.2919 -2
      vertex 2.50924 -22.7868 -2
    endloop
  endfacet
  facet normal 0 0 -1
    outer loop
      vertex -5 20 -2
      vertex -0.391982 -16.2705 -2
      vertex -1.15881 -16.4335 -2
    endloop
  endfacet
  facet normal 0 0 -1
    outer loop
      vertex 4.23915 22.2528 -2
      vertex -9.125 20.2345 -2
      vertex 4.2 22.5 -2
    endloop
  endfacet
  facet normal 0 0 -1
    outer loop
      vertex 1 -24.9123 -2
      vertex 1 -25 -2
      vertex 0.391982 -23.7295 -2
    endloop
  endfacet
  facet normal 0 0 -1
    outer loop
      vertex -5 20 -2
      vertex -1.875 -16.7524 -2
      vertex -2.50924 -17.2132 -2
    endloop
  endfacet
  facet normal 0 0 -1
    outer loop
      vertex -5 20 -2
      vertex -2.50924 -17.2132 -2
      vertex -3.03381 -17.7958 -2
    endloop
  endfacet
  facet normal 0 0 -1
    outer loop
      vertex -5 20 -2
      vertex -3.03381 -17.7958 -2
      vertex -3.42579 -18.4747 -2
    endloop
  endfacet
  facet normal 0 0 -1
    outer loop
      vertex -5 20 -2
      vertex -3.42579 -18.4747 -2
      vertex -3.66805 -19.2203 -2
    endloop
  endfacet
  facet normal 0 0 -1
    outer loop
      vertex -5 20 -2
      vertex -3.66805 -19.2203 -2
      vertex -3.75 -20 -2
    endloop
  endfacet
  facet normal 0 0 -1
    outer loop
      vertex -5 20 -2
      vertex -3.75 -20 -2
      vertex -3.99404 -23.6525 -2
    endloop
  endfacet
  facet normal 0 0 -1
    outer loop
      vertex -5 20 -2
      vertex -3.99404 -23.6525 -2
      vertex -4.88377 -21 -2
    endloop
  endfacet
  facet normal 0 0 -1
    outer loop
      vertex -5 20 -2
      vertex -4.88377 -21 -2
      vertex -5 -21 -2
    endloop
  endfacet
  facet normal -0.866025 0.5 0
    outer loop
      vertex -10 23.25 -2
      vertex -10 23.25 6
      vertex -9.125 24.7655 -2
    endloop
  endfacet
  facet normal -0.866025 0.5 0
    outer loop
      vertex -9.125 24.7655 -2
      vertex -10 23.25 6
      vertex -9.125 24.7655 6
    endloop
  endfacet
  facet normal 0 0 1
    outer loop
      vertex -10 23.25 6
      vertex -10 21.75 6
      vertex -9.125 20.2345 6
    endloop
  endfacet
  facet normal 0 0 1
    outer loop
      vertex -5 20 6
      vertex -10 23.25 6
      vertex -8.25 20.2345 6
    endloop
  endfacet
  facet normal 0 0 1
    outer loop
      vertex -8.25 20.2345 6
      vertex -10 23.25 6
      vertex -9.125 20.2345 6
    endloop
  endfacet
  facet normal 0 0 1
    outer loop
      vertex -5 20 6
      vertex -8.25 20.2345 6
      vertex -8.25 20 6
    endloop
  endfacet
  facet normal 0 0 1
    outer loop
      vertex -5.76084 22.2528 6
      vertex -10 23.25 6
      vertex -5 20 6
    endloop
  endfacet
  facet normal 0 0 1
    outer loop
      vertex -4.88377 -21 6
      vertex -5 20 6
      vertex -5 -21 6
    endloop
  endfacet
  facet normal 0 0 1
    outer loop
      vertex -3.99404 -23.6525 6
      vertex -5 20 6
      vertex -4.88377 -21 6
    endloop
  endfacet
  facet normal 0 0 1
    outer loop
      vertex -3.99404 -23.6525 6
      vertex -4.88377 -21 6
      vertex -4.88377 -21.9573 6
    endloop
  endfacet
  facet normal 0 0 1
    outer loop
      vertex -3.75 -20 6
      vertex -5 20 6
      vertex -3.99404 -23.6525 6
    endloop
  endfacet
  facet normal 0 0 1
    outer loop
      vertex -2.50924 -22.7868 6
      vertex -3.03381 -22.2042 6
      vertex -2.41842 -24.7401 6
    endloop
  endfacet
  facet normal 0 0 1
    outer loop
      vertex 1 -25 6
      vertex -1 -24.9123 6
      vertex -1 -25 6
    endloop
  endfacet
  facet normal 0 0 1
    outer loop
      vertex 2.667 20 6
      vertex 4.54182 -22.8589 6
      vertex 5 -21 6
    endloop
  endfacet
  facet normal 0 0 1
    outer loop
      vertex 5 20 6
      vertex 2.667 20 6
      vertex 5 -21 6
    endloop
  endfacet
  facet normal 0 0 1
    outer loop
      vertex 3.66805 -19.2203 6
      vertex 3.75 -20 6
      vertex 4.54182 -22.8589 6
    endloop
  endfacet
  facet normal 0 0 1
    outer loop
      vertex 5.24721 23.2608 6
      vertex 5.47023 23.1472 6
      vertex 10 23.25 6
    endloop
  endfacet
  facet normal 0 0 1
    outer loop
      vertex 8.25 24.7655 6
      vertex -10 23.25 6
      vertex 9.125 24.7655 6
    endloop
  endfacet
  facet normal 0 0 1
    outer loop
      vertex 8.25 25 6
      vertex -10 23.25 6
      vertex 8.25 24.7655 6
    endloop
  endfacet
  facet normal 0 0 1
    outer loop
      vertex -8.25 24.7655 6
      vertex -10 23.25 6
      vertex 8.25 25 6
    endloop
  endfacet
  facet normal 0 0 1
    outer loop
      vertex -3.75 -20 6
      vertex -3.66805 -19.2203 6
      vertex -5 20 6
    endloop
  endfacet
  facet normal 0 0 1
    outer loop
      vertex -8.25 25 6
      vertex -8.25 24.7655 6
      vertex 8.25 25 6
    endloop
  endfacet
  facet normal 0 0 1
    outer loop
      vertex -5.64721 22.0298 6
      vertex -5.76084 22.2528 6
      vertex -5 20 6
    endloop
  endfacet
  facet normal 0 0 1
    outer loop
      vertex -3.03381 -17.7958 6
      vertex -2.667 -17.3884 6
      vertex -5 20 6
    endloop
  endfacet
  facet normal 0 0 1
    outer loop
      vertex -4.35279 22.0298 6
      vertex -4.52977 21.8528 6
      vertex 5 20 6
    endloop
  endfacet
  facet normal 0 0 1
    outer loop
      vertex -4.23915 22.2528 6
      vertex -4.35279 22.0298 6
      vertex 5 20 6
    endloop
  endfacet
  facet normal 0 0 1
    outer loop
      vertex -5.47023 23.1472 6
      vertex -10 23.25 6
      vertex -5.64721 22.9702 6
    endloop
  endfacet
  facet normal 0 0 1
    outer loop
      vertex -5 23.3 6
      vertex -4.75279 23.2608 6
      vertex 9.125 24.7655 6
    endloop
  endfacet
  facet normal 0 0 1
    outer loop
      vertex -4.52977 23.1472 6
      vertex -4.35279 22.9702 6
      vertex 4.52977 23.1472 6
    endloop
  endfacet
  facet normal 0 0 1
    outer loop
      vertex -5 23.3 6
      vertex -10 23.25 6
      vertex -5.24721 23.2608 6
    endloop
  endfacet
  facet normal 0 0 1
    outer loop
      vertex 9.125 24.7655 6
      vertex -10 23.25 6
      vertex -5 23.3 6
    endloop
  endfacet
  facet normal 0 0 1
    outer loop
      vertex -4.2 22.5 6
      vertex -4.23915 22.2528 6
      vertex 8.25 20.2345 6
    endloop
  endfacet
  facet normal 0 0 1
    outer loop
      vertex -5.47023 23.1472 6
      vertex -5.24721 23.2608 6
      vertex -10 23.25 6
    endloop
  endfacet
  facet normal 0 0 1
    outer loop
      vertex 5 21.7 6
      vertex -4.2 22.5 6
      vertex 9.125 20.2345 6
    endloop
  endfacet
  facet normal 0 0 1
    outer loop
      vertex 8.25 20.2345 6
      vertex -4.23915 22.2528 6
      vertex 8.25 20 6
    endloop
  endfacet
  facet normal 0 0 1
    outer loop
      vertex -5.76084 22.7472 6
      vertex -5.64721 22.9702 6
      vertex -10 23.25 6
    endloop
  endfacet
  facet normal 0 0 1
    outer loop
      vertex -4.23915 22.2528 6
      vertex 5 20 6
      vertex 8.25 20 6
    endloop
  endfacet
  facet normal 0 0 1
    outer loop
      vertex -2.667 20 6
      vertex -4.52977 21.8528 6
      vertex -5 20 6
    endloop
  endfacet
  facet normal 0 0 1
    outer loop
      vertex -4.52977 21.8528 6
      vertex -4.75279 21.7392 6
      vertex -5 20 6
    endloop
  endfacet
  facet normal 0 0 1
    outer loop
      vertex -4.75279 21.7392 6
      vertex -5 21.7 6
      vertex -5 20 6
    endloop
  endfacet
  facet normal 0 0 1
    outer loop
      vertex -5 21.7 6
      vertex -5.24721 21.7392 6
      vertex -5 20 6
    endloop
  endfacet
  facet normal 0 0 1
    outer loop
      vertex -5.24721 21.7392 6
      vertex -5.47023 21.8528 6
      vertex -5 20 6
    endloop
  endfacet
  facet normal 0 0 1
    outer loop
      vertex -5.47023 21.8528 6
      vertex -5.64721 22.0298 6
      vertex -5 20 6
    endloop
  endfacet
  facet normal 0 0 1
    outer loop
      vertex -2.41842 -24.7401 6
      vertex -3.66805 -20.7797 6
      vertex -3.99404 -23.6525 6
    endloop
  endfacet
  facet normal 0 0 1
    outer loop
      vertex 4.35279 22.0298 6
      vertex -4.23915 22.7472 6
      vertex -4.2 22.5 6
    endloop
  endfacet
  facet normal 0 0 1
    outer loop
      vertex -3.66805 -20.7797 6
      vertex -3.75 -20 6
      vertex -3.99404 -23.6525 6
    endloop
  endfacet
  facet normal 0 0 1
    outer loop
      vertex -3.42579 -18.4747 6
      vertex -5 20 6
      vertex -3.66805 -19.2203 6
    endloop
  endfacet
  facet normal 0 0 1
    outer loop
      vertex 4.75279 21.7392 6
      vertex 4.52977 21.8528 6
      vertex -4.2 22.5 6
    endloop
  endfacet
  facet normal 0 0 1
    outer loop
      vertex -3.03381 -17.7958 6
      vertex -5 20 6
      vertex -3.42579 -18.4747 6
    endloop
  endfacet
  facet normal 0 0 1
    outer loop
      vertex 3.75 -20 6
      vertex 3.66805 -20.7797 6
      vertex 4.54182 -22.8589 6
    endloop
  endfacet
  facet normal 0 0 1
    outer loop
      vertex 2.667 20 6
      vertex -4.52977 21.8528 6
      vertex -2.667 20 6
    endloop
  endfacet
  facet normal 0 0 1
    outer loop
      vertex 4.35279 22.0298 6
      vertex 4.23915 22.2528 6
      vertex -4.35279 22.9702 6
    endloop
  endfacet
  facet normal 0 0 1
    outer loop
      vertex 5 20 6
      vertex -4.52977 21.8528 6
      vertex 2.667 20 6
    endloop
  endfacet
  facet normal 0 0 1
    outer loop
      vertex 3.03381 -22.2042 6
      vertex 2.50924 -22.7868 6
      vertex 3.27226 -24.2919 6
    endloop
  endfacet
  facet normal 0 0 1
    outer loop
      vertex 2.667 20 6
      vertex 2.667 -17.3884 6
      vertex 3.03381 -17.7958 6
    endloop
  endfacet
  facet normal 0 0 1
    outer loop
      vertex 3.42579 -21.5253 6
      vertex 3.03381 -22.2042 6
      vertex 3.27226 -24.2919 6
    endloop
  endfacet
  facet normal 0 0 1
    outer loop
      vertex 2.667 20 6
      vertex 3.03381 -17.7958 6
      vertex 3.42579 -18.4747 6
    endloop
  endfacet
  facet normal 0 0 1
    outer loop
      vertex 2.667 20 6
      vertex 3.42579 -18.4747 6
      vertex 3.66805 -19.2203 6
    endloop
  endfacet
  facet normal 0 0 1
    outer loop
      vertex 2.667 20 6
      vertex 3.66805 -19.2203 6
      vertex 4.54182 -22.8589 6
    endloop
  endfacet
  facet normal 0 0 1
    outer loop
      vertex 1.15881 -23.5665 6
      vertex 0.391982 -23.7295 6
      vertex 1 -24.9123 6
    endloop
  endfacet
  facet normal 0 0 1
    outer loop
      vertex 4.54182 -22.8589 6
      vertex 3.66805 -20.7797 6
      vertex 3.27226 -24.2919 6
    endloop
  endfacet
  facet normal 0 0 1
    outer loop
      vertex 3.66805 -20.7797 6
      vertex 3.42579 -21.5253 6
      vertex 3.27226 -24.2919 6
    endloop
  endfacet
  facet normal 0 0 1
    outer loop
      vertex 3.27226 -24.2919 6
      vertex 2.50924 -22.7868 6
      vertex 1.48215 -24.9708 6
    endloop
  endfacet
  facet normal 0 0 1
    outer loop
      vertex 2.50924 -22.7868 6
      vertex 1.875 -23.2476 6
      vertex 1.48215 -24.9708 6
    endloop
  endfacet
  facet normal 0 0 1
    outer loop
      vertex 1.48215 -24.9708 6
      vertex 1.15881 -23.5665 6
      vertex 1 -24.9123 6
    endloop
  endfacet
  facet normal 0 0 1
    outer loop
      vertex 1 -25 6
      vertex 0.391982 -23.7295 6
      vertex -1 -24.9123 6
    endloop
  endfacet
  facet normal 0 0 1
    outer loop
      vertex 0.391982 -23.7295 6
      vertex -0.391982 -23.7295 6
      vertex -1 -24.9123 6
    endloop
  endfacet
  facet normal 0 0 1
    outer loop
      vertex -1.875 -23.2476 6
      vertex -2.50924 -22.7868 6
      vertex -2.41842 -24.7401 6
    endloop
  endfacet
  facet normal 0 0 1
    outer loop
      vertex -1 -24.9123 6
      vertex -1.875 -23.2476 6
      vertex -2.41842 -24.7401 6
    endloop
  endfacet
  facet normal 0 0 1
    outer loop
      vertex 4.35279 22.0298 6
      vertex -4.35279 22.9702 6
      vertex -4.23915 22.7472 6
    endloop
  endfacet
  facet normal 0 0 1
    outer loop
      vertex -2.41842 -24.7401 6
      vertex -3.42579 -21.5253 6
      vertex -3.66805 -20.7797 6
    endloop
  endfacet
  facet normal 0 0 1
    outer loop
      vertex -2.41842 -24.7401 6
      vertex -3.03381 -22.2042 6
      vertex -3.42579 -21.5253 6
    endloop
  endfacet
  facet normal 0 0 1
    outer loop
      vertex 5.64721 22.0298 6
      vertex 5.47023 21.8528 6
      vertex 10 21.75 6
    endloop
  endfacet
  facet normal 0 0 1
    outer loop
      vertex 4.2 22.5 6
      vertex -4.35279 22.9702 6
      vertex 4.23915 22.2528 6
    endloop
  endfacet
  facet normal 0 0 1
    outer loop
      vertex 5.76084 22.2528 6
      vertex 5.64721 22.0298 6
      vertex 10 21.75 6
    endloop
  endfacet
  facet normal 0 0 1
    outer loop
      vertex 4.23915 22.7472 6
      vertex -4.35279 22.9702 6
      vertex 4.2 22.5 6
    endloop
  endfacet
  facet normal 0 0 1
    outer loop
      vertex 4.35279 22.9702 6
      vertex -4.35279 22.9702 6
      vertex 4.23915 22.7472 6
    endloop
  endfacet
  facet normal 0 0 1
    outer loop
      vertex 4.52977 23.1472 6
      vertex 4.75279 23.2608 6
      vertex -4.75279 23.2608 6
    endloop
  endfacet
  facet normal 0 0 1
    outer loop
      vertex 5.47023 23.1472 6
      vertex 5.64721 22.9702 6
      vertex 10 23.25 6
    endloop
  endfacet
  facet normal 0 0 1
    outer loop
      vertex 5.76084 22.7472 6
      vertex 5.8 22.5 6
      vertex 10 23.25 6
    endloop
  endfacet
  facet normal 0 0 1
    outer loop
      vertex 9.125 24.7655 6
      vertex -4.75279 23.2608 6
      vertex 4.75279 23.2608 6
    endloop
  endfacet
  facet normal 0 0 1
    outer loop
      vertex 9.125 24.7655 6
      vertex 5 23.3 6
      vertex 10 23.25 6
    endloop
  endfacet
  facet normal 0 0 1
    outer loop
      vertex 9.125 24.7655 6
      vertex 4.75279 23.2608 6
      vertex 5 23.3 6
    endloop
  endfacet
  facet normal 0 0 1
    outer loop
      vertex 5 23.3 6
      vertex 5.24721 23.2608 6
      vertex 10 23.25 6
    endloop
  endfacet
  facet normal 0 0 1
    outer loop
      vertex 5.64721 22.9702 6
      vertex 5.76084 22.7472 6
      vertex 10 23.25 6
    endloop
  endfacet
  facet normal 0 0 1
    outer loop
      vertex 4.52977 23.1472 6
      vertex -4.75279 23.2608 6
      vertex -4.52977 23.1472 6
    endloop
  endfacet
  facet normal 0 0 1
    outer loop
      vertex 10 23.25 6
      vertex 5.8 22.5 6
      vertex 10 21.75 6
    endloop
  endfacet
  facet normal 0 0 1
    outer loop
      vertex 5.8 22.5 6
      vertex 5.76084 22.2528 6
      vertex 10 21.75 6
    endloop
  endfacet
  facet normal 0 0 1
    outer loop
      vertex -4.2 22.5 6
      vertex 8.25 20.2345 6
      vertex 9.125 20.2345 6
    endloop
  endfacet
  facet normal 0 0 1
    outer loop
      vertex 4.35279 22.9702 6
      vertex 4.52977 23.1472 6
      vertex -4.35279 22.9702 6
    endloop
  endfacet
  facet normal 0 0 1
    outer loop
      vertex 10 21.75 6
      vertex 5.47023 21.8528 6
      vertex 9.125 20.2345 6
    endloop
  endfacet
  facet normal 0 0 1
    outer loop
      vertex 5.47023 21.8528 6
      vertex 5.24721 21.7392 6
      vertex 9.125 20.2345 6
    endloop
  endfacet
  facet normal 0 0 1
    outer loop
      vertex 5.24721 21.7392 6
      vertex 5 21.7 6
      vertex 9.125 20.2345 6
    endloop
  endfacet
  facet normal 0 0 1
    outer loop
      vertex 4.75279 21.7392 6
      vertex -4.2 22.5 6
      vertex 5 21.7 6
    endloop
  endfacet
  facet normal 0 0 1
    outer loop
      vertex 4.52977 21.8528 6
      vertex 4.35279 22.0298 6
      vertex -4.2 22.5 6
    endloop
  endfacet
  facet normal 0 0 1
    outer loop
      vertex -8.25 24.7655 6
      vertex -9.125 24.7655 6
      vertex -10 23.25 6
    endloop
  endfacet
  facet normal 0 0 1
    outer loop
      vertex -5.76084 22.2528 6
      vertex -5.8 22.5 6
      vertex -10 23.25 6
    endloop
  endfacet
  facet normal 0 0 1
    outer loop
      vertex -5.8 22.5 6
      vertex -5.76084 22.7472 6
      vertex -10 23.25 6
    endloop
  endfacet
  facet normal 0 0 1
    outer loop
      vertex 1.875 -23.2476 6
      vertex 1.15881 -23.5665 6
      vertex 1.48215 -24.9708 6
    endloop
  endfacet
  facet normal 0 0 1
    outer loop
      vertex 1 -24.9123 6
      vertex 0.391982 -23.7295 6
      vertex 1 -25 6
    endloop
  endfacet
  facet normal 0 0 1
    outer loop
      vertex -0.391982 -23.7295 6
      vertex -1.15881 -23.5665 6
      vertex -1 -24.9123 6
    endloop
  endfacet
  facet normal 0 0 1
    outer loop
      vertex -1.15881 -23.5665 6
      vertex -1.875 -23.2476 6
      vertex -1 -24.9123 6
    endloop
  endfacet
  facet normal 0 0 1
    outer loop
      vertex -2.667 -17.3884 6
      vertex -2.667 20 6
      vertex -5 20 6
    endloop
  endfacet
  facet normal 0 -1 0
    outer loop
      vertex -9.125 20.2345 6
      vertex -9.125 20.2345 -2
      vertex -8.25 20.2345 -2
    endloop
  endfacet
  facet normal 0 -1 0
    outer loop
      vertex -8.25 20.2345 6
      vertex -9.125 20.2345 6
      vertex -8.25 20.2345 -2
    endloop
  endfacet
  facet normal -1 0 0
    outer loop
      vertex -8.25 20 -2
      vertex -8.25 20 6
      vertex -8.25 20.2345 -2
    endloop
  endfacet
  facet normal -1 0 0
    outer loop
      vertex -8.25 20.2345 -2
      vertex -8.25 20 6
      vertex -8.25 20.2345 6
    endloop
  endfacet
  facet normal 0 -1 0
    outer loop
      vertex -8.25 20 6
      vertex -8.25 20 -2
      vertex -5 20 -2
    endloop
  endfacet
  facet normal 0 -1 0
    outer loop
      vertex -5 20 6
      vertex -8.25 20 6
      vertex -5 20 -2
    endloop
  endfacet
  facet normal -1 0 0
    outer loop
      vertex -5 -21 -2
      vertex -5 -21 6
      vertex -5 20 -2
    endloop
  endfacet
  facet normal -1 0 0
    outer loop
      vertex -5 20 -2
      vertex -5 -21 6
      vertex -5 20 6
    endloop
  endfacet
  facet normal 0 -1 0
    outer loop
      vertex -5 -21 6
      vertex -5 -21 -2
      vertex -4.88377 -21 -2
    endloop
  endfacet
  facet normal 0 -1 0
    outer loop
      vertex -4.88377 -21 6
      vertex -5 -21 6
      vertex -4.88377 -21 -2
    endloop
  endfacet
  facet normal -1 0 0
    outer loop
      vertex -4.88377 -21.9573 -2
      vertex -4.88377 -21.9573 6
      vertex -4.88377 -21 -2
    endloop
  endfacet
  facet normal -1 0 0
    outer loop
      vertex -4.88377 -21 -2
      vertex -4.88377 -21.9573 6
      vertex -4.88377 -21 6
    endloop
  endfacet
  facet normal -0.885456 -0.464723 0
    outer loop
      vertex -4.88377 -21.9573 -2
      vertex -3.99404 -23.6525 -2
      vertex -4.88377 -21.9573 6
    endloop
  endfacet
  facet normal -0.885456 -0.464723 0
    outer loop
      vertex -4.88377 -21.9573 6
      vertex -3.99404 -23.6525 -2
      vertex -3.99404 -23.6525 6
    endloop
  endfacet
  facet normal -0.568065 -0.822984 0
    outer loop
      vertex -3.99404 -23.6525 6
      vertex -3.99404 -23.6525 -2
      vertex -2.41842 -24.7401 -2
    endloop
  endfacet
  facet normal -0.568065 -0.822984 0
    outer loop
      vertex -2.41842 -24.7401 6
      vertex -3.99404 -23.6525 6
      vertex -2.41842 -24.7401 -2
    endloop
  endfacet
  facet normal -0.120536 -0.992709 0
    outer loop
      vertex -2.41842 -24.7401 6
      vertex -2.41842 -24.7401 -2
      vertex -1 -24.9123 -2
    endloop
  endfacet
  facet normal -0.120536 -0.992709 0
    outer loop
      vertex -1 -24.9123 6
      vertex -2.41842 -24.7401 6
      vertex -1 -24.9123 -2
    endloop
  endfacet
  facet normal -1 0 0
    outer loop
      vertex -1 -25 -2
      vertex -1 -25 6
      vertex -1 -24.9123 -2
    endloop
  endfacet
  facet normal -1 0 0
    outer loop
      vertex -1 -24.9123 -2
      vertex -1 -25 6
      vertex -1 -24.9123 6
    endloop
  endfacet
  facet normal 0 -1 0
    outer loop
      vertex -1 -25 6
      vertex -1 -25 -2
      vertex 1 -25 -2
    endloop
  endfacet
  facet normal 0 -1 0
    outer loop
      vertex 1 -25 6
      vertex -1 -25 6
      vertex 1 -25 -2
    endloop
  endfacet
  facet normal 1 0 0
    outer loop
      vertex 1 -25 6
      vertex 1 -25 -2
      vertex 1 -24.9123 -2
    endloop
  endfacet
  facet normal 1 0 0
    outer loop
      vertex 1 -24.9123 6
      vertex 1 -25 6
      vertex 1 -24.9123 -2
    endloop
  endfacet
  facet normal -0.120536 -0.992709 0
    outer loop
      vertex 1 -24.9123 6
      vertex 1 -24.9123 -2
      vertex 1.48215 -24.9708 -2
    endloop
  endfacet
  facet normal -0.120536 -0.992709 0
    outer loop
      vertex 1.48215 -24.9708 6
      vertex 1 -24.9123 6
      vertex 1.48215 -24.9708 -2
    endloop
  endfacet
  facet normal 0.354605 -0.935016 0
    outer loop
      vertex 1.48215 -24.9708 6
      vertex 1.48215 -24.9708 -2
      vertex 3.27226 -24.2919 -2
    endloop
  endfacet
  facet normal 0.354605 -0.935016 0
    outer loop
      vertex 3.27226 -24.2919 6
      vertex 1.48215 -24.9708 6
      vertex 3.27226 -24.2919 -2
    endloop
  endfacet
  facet normal 0.748511 -0.663123 0
    outer loop
      vertex 3.27226 -24.2919 6
      vertex 3.27226 -24.2919 -2
      vertex 4.54182 -22.8589 -2
    endloop
  endfacet
  facet normal 0.748511 -0.663123 0
    outer loop
      vertex 4.54182 -22.8589 6
      vertex 3.27226 -24.2919 6
      vertex 4.54182 -22.8589 -2
    endloop
  endfacet
  facet normal 0.970942 -0.239316 0
    outer loop
      vertex 4.54182 -22.8589 6
      vertex 4.54182 -22.8589 -2
      vertex 5 -21 -2
    endloop
  endfacet
  facet normal 0.970942 -0.239316 0
    outer loop
      vertex 5 -21 6
      vertex 4.54182 -22.8589 6
      vertex 5 -21 -2
    endloop
  endfacet
  facet normal 1 0 0
    outer loop
      vertex 5 -21 6
      vertex 5 -21 -2
      vertex 5 20 -2
    endloop
  endfacet
  facet normal 1 0 0
    outer loop
      vertex 5 20 6
      vertex 5 -21 6
      vertex 5 20 -2
    endloop
  endfacet
  facet normal 0 -1 0
    outer loop
      vertex 5 20 6
      vertex 5 20 -2
      vertex 8.25 20 -2
    endloop
  endfacet
  facet normal 0 -1 0
    outer loop
      vertex 8.25 20 6
      vertex 5 20 6
      vertex 8.25 20 -2
    endloop
  endfacet
  facet normal 1 0 0
    outer loop
      vertex 8.25 20 6
      vertex 8.25 20 -2
      vertex 8.25 20.2345 -2
    endloop
  endfacet
  facet normal 1 0 0
    outer loop
      vertex 8.25 20.2345 6
      vertex 8.25 20 6
      vertex 8.25 20.2345 -2
    endloop
  endfacet
  facet normal 0 -1 0
    outer loop
      vertex 8.25 20.2345 6
      vertex 8.25 20.2345 -2
      vertex 9.125 20.2345 -2
    endloop
  endfacet
  facet normal 0 -1 0
    outer loop
      vertex 9.125 20.2345 6
      vertex 8.25 20.2345 6
      vertex 9.125 20.2345 -2
    endloop
  endfacet
  facet normal 0.866025 -0.5 0
    outer loop
      vertex 9.125 20.2345 6
      vertex 9.125 20.2345 -2
      vertex 10 21.75 -2
    endloop
  endfacet
  facet normal 0.866025 -0.5 0
    outer loop
      vertex 10 21.75 6
      vertex 9.125 20.2345 6
      vertex 10 21.75 -2
    endloop
  endfacet
  facet normal 1 0 0
    outer loop
      vertex 10 21.75 6
      vertex 10 21.75 -2
      vertex 10 23.25 -2
    endloop
  endfacet
  facet normal 1 0 0
    outer loop
      vertex 10 23.25 6
      vertex 10 21.75 6
      vertex 10 23.25 -2
    endloop
  endfacet
  facet normal 0.866025 0.5 0
    outer loop
      vertex 10 23.25 -2
      vertex 9.125 24.7655 -2
      vertex 9.125 24.7655 6
    endloop
  endfacet
  facet normal 0.866025 0.5 0
    outer loop
      vertex 10 23.25 6
      vertex 10 23.25 -2
      vertex 9.125 24.7655 6
    endloop
  endfacet
  facet normal 0 1 0
    outer loop
      vertex 8.25 24.7655 -2
      vertex 8.25 24.7655 6
      vertex 9.125 24.7655 -2
    endloop
  endfacet
  facet normal 0 1 0
    outer loop
      vertex 9.125 24.7655 -2
      vertex 8.25 24.7655 6
      vertex 9.125 24.7655 6
    endloop
  endfacet
  facet normal 1 0 0
    outer loop
      vertex 8.25 24.7655 6
      vertex 8.25 24.7655 -2
      vertex 8.25 25 -2
    endloop
  endfacet
  facet normal 1 0 0
    outer loop
      vertex 8.25 25 6
      vertex 8.25 24.7655 6
      vertex 8.25 25 -2
    endloop
  endfacet
  facet normal 0 1 0
    outer loop
      vertex -8.25 25 -2
      vertex -8.25 25 6
      vertex 8.25 25 -2
    endloop
  endfacet
  facet normal 0 1 0
    outer loop
      vertex 8.25 25 -2
      vertex -8.25 25 6
      vertex 8.25 25 6
    endloop
  endfacet
  facet normal -1 0 0
    outer loop
      vertex -8.25 24.7655 -2
      vertex -8.25 24.7655 6
      vertex -8.25 25 -2
    endloop
  endfacet
  facet normal -1 0 0
    outer loop
      vertex -8.25 25 -2
      vertex -8.25 24.7655 6
      vertex -8.25 25 6
    endloop
  endfacet
  facet normal 0 1 0
    outer loop
      vertex -9.125 24.7655 -2
      vertex -9.125 24.7655 6
      vertex -8.25 24.7655 -2
    endloop
  endfacet
  facet normal 0 1 0
    outer loop
      vertex -8.25 24.7655 -2
      vertex -9.125 24.7655 6
      vertex -8.25 24.7655 6
    endloop
  endfacet
  facet normal 0.987688 0.156435 0
    outer loop
      vertex -5.8 22.5 6
      vertex -5.76084 22.2528 6
      vertex -5.76084 22.2528 -2
    endloop
  endfacet
  facet normal 0.987688 0.156435 0
    outer loop
      vertex -5.8 22.5 -2
      vertex -5.8 22.5 6
      vertex -5.76084 22.2528 -2
    endloop
  endfacet
  facet normal 0.987688 -0.156435 0
    outer loop
      vertex -5.76084 22.7472 -2
      vertex -5.76084 22.7472 6
      vertex -5.8 22.5 6
    endloop
  endfacet
  facet normal 0.987688 -0.156435 0
    outer loop
      vertex -5.8 22.5 -2
      vertex -5.76084 22.7472 -2
      vertex -5.8 22.5 6
    endloop
  endfacet
  facet normal 0.891007 -0.45399 0
    outer loop
      vertex -5.64721 22.9702 -2
      vertex -5.64721 22.9702 6
      vertex -5.76084 22.7472 6
    endloop
  endfacet
  facet normal 0.891007 -0.45399 0
    outer loop
      vertex -5.76084 22.7472 -2
      vertex -5.64721 22.9702 -2
      vertex -5.76084 22.7472 6
    endloop
  endfacet
  facet normal 0.707107 -0.707107 0
    outer loop
      vertex -5.47023 23.1472 -2
      vertex -5.47023 23.1472 6
      vertex -5.64721 22.9702 6
    endloop
  endfacet
  facet normal 0.707107 -0.707107 0
    outer loop
      vertex -5.64721 22.9702 -2
      vertex -5.47023 23.1472 -2
      vertex -5.64721 22.9702 6
    endloop
  endfacet
  facet normal 0.45399 -0.891007 0
    outer loop
      vertex -5.24721 23.2608 -2
      vertex -5.24721 23.2608 6
      vertex -5.47023 23.1472 6
    endloop
  endfacet
  facet normal 0.45399 -0.891007 0
    outer loop
      vertex -5.47023 23.1472 -2
      vertex -5.24721 23.2608 -2
      vertex -5.47023 23.1472 6
    endloop
  endfacet
  facet normal 0.156435 -0.987688 0
    outer loop
      vertex -5 23.3 -2
      vertex -5 23.3 6
      vertex -5.24721 23.2608 6
    endloop
  endfacet
  facet normal 0.156435 -0.987688 0
    outer loop
      vertex -5.24721 23.2608 -2
      vertex -5 23.3 -2
      vertex -5.24721 23.2608 6
    endloop
  endfacet
  facet normal -0.156435 -0.987688 0
    outer loop
      vertex -4.75279 23.2608 -2
      vertex -4.75279 23.2608 6
      vertex -5 23.3 6
    endloop
  endfacet
  facet normal -0.156435 -0.987688 0
    outer loop
      vertex -5 23.3 -2
      vertex -4.75279 23.2608 -2
      vertex -5 23.3 6
    endloop
  endfacet
  facet normal -0.45399 -0.891007 0
    outer loop
      vertex -4.52977 23.1472 -2
      vertex -4.52977 23.1472 6
      vertex -4.75279 23.2608 6
    endloop
  endfacet
  facet normal -0.45399 -0.891007 0
    outer loop
      vertex -4.75279 23.2608 -2
      vertex -4.52977 23.1472 -2
      vertex -4.75279 23.2608 6
    endloop
  endfacet
  facet normal -0.707107 -0.707107 0
    outer loop
      vertex -4.35279 22.9702 6
      vertex -4.52977 23.1472 6
      vertex -4.35279 22.9702 -2
    endloop
  endfacet
  facet normal -0.707107 -0.707107 0
    outer loop
      vertex -4.35279 22.9702 -2
      vertex -4.52977 23.1472 6
      vertex -4.52977 23.1472 -2
    endloop
  endfacet
  facet normal -0.891007 -0.45399 0
    outer loop
      vertex -4.23915 22.7472 6
      vertex -4.35279 22.9702 6
      vertex -4.23915 22.7472 -2
    endloop
  endfacet
  facet normal -0.891007 -0.45399 0
    outer loop
      vertex -4.23915 22.7472 -2
      vertex -4.35279 22.9702 6
      vertex -4.35279 22.9702 -2
    endloop
  endfacet
  facet normal -0.987688 -0.156435 0
    outer loop
      vertex -4.2 22.5 6
      vertex -4.23915 22.7472 6
      vertex -4.2 22.5 -2
    endloop
  endfacet
  facet normal -0.987688 -0.156435 0
    outer loop
      vertex -4.2 22.5 -2
      vertex -4.23915 22.7472 6
      vertex -4.23915 22.7472 -2
    endloop
  endfacet
  facet normal -0.987688 0.156435 0
    outer loop
      vertex -4.2 22.5 6
      vertex -4.2 22.5 -2
      vertex -4.23915 22.2528 6
    endloop
  endfacet
  facet normal -0.987688 0.156435 0
    outer loop
      vertex -4.23915 22.2528 6
      vertex -4.2 22.5 -2
      vertex -4.23915 22.2528 -2
    endloop
  endfacet
  facet normal -0.891007 0.45399 0
    outer loop
      vertex -4.23915 22.2528 6
      vertex -4.23915 22.2528 -2
      vertex -4.35279 22.0298 6
    endloop
  endfacet
  facet normal -0.891007 0.45399 0
    outer loop
      vertex -4.35279 22.0298 6
      vertex -4.23915 22.2528 -2
      vertex -4.35279 22.0298 -2
    endloop
  endfacet
  facet normal -0.707107 0.707107 0
    outer loop
      vertex -4.35279 22.0298 6
      vertex -4.35279 22.0298 -2
      vertex -4.52977 21.8528 6
    endloop
  endfacet
  facet normal -0.707107 0.707107 0
    outer loop
      vertex -4.52977 21.8528 6
      vertex -4.35279 22.0298 -2
      vertex -4.52977 21.8528 -2
    endloop
  endfacet
  facet normal -0.45399 0.891007 0
    outer loop
      vertex -4.52977 21.8528 6
      vertex -4.52977 21.8528 -2
      vertex -4.75279 21.7392 6
    endloop
  endfacet
  facet normal -0.45399 0.891007 0
    outer loop
      vertex -4.75279 21.7392 6
      vertex -4.52977 21.8528 -2
      vertex -4.75279 21.7392 -2
    endloop
  endfacet
  facet normal -0.156435 0.987688 0
    outer loop
      vertex -4.75279 21.7392 6
      vertex -4.75279 21.7392 -2
      vertex -5 21.7 6
    endloop
  endfacet
  facet normal -0.156435 0.987688 0
    outer loop
      vertex -5 21.7 6
      vertex -4.75279 21.7392 -2
      vertex -5 21.7 -2
    endloop
  endfacet
  facet normal 0.156435 0.987688 0
    outer loop
      vertex -5 21.7 6
      vertex -5 21.7 -2
      vertex -5.24721 21.7392 6
    endloop
  endfacet
  facet normal 0.156435 0.987688 0
    outer loop
      vertex -5.24721 21.7392 6
      vertex -5 21.7 -2
      vertex -5.24721 21.7392 -2
    endloop
  endfacet
  facet normal 0.45399 0.891007 0
    outer loop
      vertex -5.24721 21.7392 6
      vertex -5.24721 21.7392 -2
      vertex -5.47023 21.8528 6
    endloop
  endfacet
  facet normal 0.45399 0.891007 0
    outer loop
      vertex -5.47023 21.8528 6
      vertex -5.24721 21.7392 -2
      vertex -5.47023 21.8528 -2
    endloop
  endfacet
  facet normal 0.707107 0.707107 0
    outer loop
      vertex -5.64721 22.0298 6
      vertex -5.47023 21.8528 6
      vertex -5.47023 21.8528 -2
    endloop
  endfacet
  facet normal 0.707107 0.707107 0
    outer loop
      vertex -5.64721 22.0298 -2
      vertex -5.64721 22.0298 6
      vertex -5.47023 21.8528 -2
    endloop
  endfacet
  facet normal 0.891007 0.45399 0
    outer loop
      vertex -5.76084 22.2528 6
      vertex -5.64721 22.0298 6
      vertex -5.64721 22.0298 -2
    endloop
  endfacet
  facet normal 0.891007 0.45399 0
    outer loop
      vertex -5.76084 22.2528 -2
      vertex -5.76084 22.2528 6
      vertex -5.64721 22.0298 -2
    endloop
  endfacet
  facet normal 0.994522 0.104528 0
    outer loop
      vertex -3.75 -20 6
      vertex -3.66805 -20.7797 6
      vertex -3.66805 -20.7797 -2
    endloop
  endfacet
  facet normal 0.994522 0.104528 0
    outer loop
      vertex -3.75 -20 -2
      vertex -3.75 -20 6
      vertex -3.66805 -20.7797 -2
    endloop
  endfacet
  facet normal 0.994522 -0.104528 0
    outer loop
      vertex -3.66805 -19.2203 -2
      vertex -3.66805 -19.2203 6
      vertex -3.75 -20 6
    endloop
  endfacet
  facet normal 0.994522 -0.104528 0
    outer loop
      vertex -3.75 -20 -2
      vertex -3.66805 -19.2203 -2
      vertex -3.75 -20 6
    endloop
  endfacet
  facet normal 0.951056 -0.309018 0
    outer loop
      vertex -3.42579 -18.4747 -2
      vertex -3.42579 -18.4747 6
      vertex -3.66805 -19.2203 6
    endloop
  endfacet
  facet normal 0.951056 -0.309018 0
    outer loop
      vertex -3.66805 -19.2203 -2
      vertex -3.42579 -18.4747 -2
      vertex -3.66805 -19.2203 6
    endloop
  endfacet
  facet normal 0.866026 -0.499999 0
    outer loop
      vertex -3.03381 -17.7958 -2
      vertex -3.03381 -17.7958 6
      vertex -3.42579 -18.4747 6
    endloop
  endfacet
  facet normal 0.866026 -0.499999 0
    outer loop
      vertex -3.42579 -18.4747 -2
      vertex -3.03381 -17.7958 -2
      vertex -3.42579 -18.4747 6
    endloop
  endfacet
  facet normal 0.743145 -0.669131 0
    outer loop
      vertex -2.50924 -17.2132 -2
      vertex -2.50924 -17.2132 0.5
      vertex -2.667 -17.3884 0.5
    endloop
  endfacet
  facet normal 0.743145 -0.669131 0
    outer loop
      vertex -3.03381 -17.7958 6
      vertex -2.50924 -17.2132 -2
      vertex -2.667 -17.3884 0.5
    endloop
  endfacet
  facet normal 0.743145 -0.669131 0
    outer loop
      vertex -2.667 -17.3884 6
      vertex -3.03381 -17.7958 6
      vertex -2.667 -17.3884 0.5
    endloop
  endfacet
  facet normal 0.743145 -0.669131 0
    outer loop
      vertex -3.03381 -17.7958 6
      vertex -3.03381 -17.7958 -2
      vertex -2.50924 -17.2132 -2
    endloop
  endfacet
  facet normal 0.587785 -0.809017 0
    outer loop
      vertex -1.875 -16.7524 -2
      vertex -1.875 -16.7524 0.5
      vertex -2.50924 -17.2132 0.5
    endloop
  endfacet
  facet normal 0.587785 -0.809017 0
    outer loop
      vertex -2.50924 -17.2132 -2
      vertex -1.875 -16.7524 -2
      vertex -2.50924 -17.2132 0.5
    endloop
  endfacet
  facet normal 0.406737 -0.913545 0
    outer loop
      vertex -1.15881 -16.4335 -2
      vertex -1.15881 -16.4335 0.5
      vertex -1.875 -16.7524 0.5
    endloop
  endfacet
  facet normal 0.406737 -0.913545 0
    outer loop
      vertex -1.875 -16.7524 -2
      vertex -1.15881 -16.4335 -2
      vertex -1.875 -16.7524 0.5
    endloop
  endfacet
  facet normal 0.207911 -0.978148 0
    outer loop
      vertex -0.391982 -16.2705 -2
      vertex -0.391982 -16.2705 0.5
      vertex -1.15881 -16.4335 0.5
    endloop
  endfacet
  facet normal 0.207911 -0.978148 0
    outer loop
      vertex -1.15881 -16.4335 -2
      vertex -0.391982 -16.2705 -2
      vertex -1.15881 -16.4335 0.5
    endloop
  endfacet
  facet normal 0 -1 0
    outer loop
      vertex 0.391982 -16.2705 -2
      vertex 0.391982 -16.2705 0.5
      vertex -0.391982 -16.2705 0.5
    endloop
  endfacet
  facet normal 0 -1 0
    outer loop
      vertex -0.391982 -16.2705 -2
      vertex 0.391982 -16.2705 -2
      vertex -0.391982 -16.2705 0.5
    endloop
  endfacet
  facet normal -0.207911 -0.978148 0
    outer loop
      vertex 1.15881 -16.4335 -2
      vertex 1.15881 -16.4335 0.5
      vertex 0.391982 -16.2705 0.5
    endloop
  endfacet
  facet normal -0.207911 -0.978148 0
    outer loop
      vertex 0.391982 -16.2705 -2
      vertex 1.15881 -16.4335 -2
      vertex 0.391982 -16.2705 0.5
    endloop
  endfacet
  facet normal -0.406737 -0.913545 0
    outer loop
      vertex 1.875 -16.7524 -2
      vertex 1.875 -16.7524 0.5
      vertex 1.15881 -16.4335 0.5
    endloop
  endfacet
  facet normal -0.406737 -0.913545 0
    outer loop
      vertex 1.15881 -16.4335 -2
      vertex 1.875 -16.7524 -2
      vertex 1.15881 -16.4335 0.5
    endloop
  endfacet
  facet normal -0.587785 -0.809017 0
    outer loop
      vertex 2.50924 -17.2132 -2
      vertex 2.50924 -17.2132 0.5
      vertex 1.875 -16.7524 0.5
    endloop
  endfacet
  facet normal -0.587785 -0.809017 0
    outer loop
      vertex 1.875 -16.7524 -2
      vertex 2.50924 -17.2132 -2
      vertex 1.875 -16.7524 0.5
    endloop
  endfacet
  facet normal -0.743145 -0.669131 0
    outer loop
      vertex 3.03381 -17.7958 6
      vertex 2.667 -17.3884 6
      vertex 3.03381 -17.7958 -2
    endloop
  endfacet
  facet normal -0.743145 -0.669131 0
    outer loop
      vertex 3.03381 -17.7958 -2
      vertex 2.667 -17.3884 6
      vertex 2.667 -17.3884 0.5
    endloop
  endfacet
  facet normal -0.743145 -0.669131 0
    outer loop
      vertex 3.03381 -17.7958 -2
      vertex 2.667 -17.3884 0.5
      vertex 2.50924 -17.2132 0.5
    endloop
  endfacet
  facet normal -0.743145 -0.669131 0
    outer loop
      vertex 3.03381 -17.7958 -2
      vertex 2.50924 -17.2132 0.5
      vertex 2.50924 -17.2132 -2
    endloop
  endfacet
  facet normal -0.866026 -0.499999 0
    outer loop
      vertex 3.42579 -18.4747 6
      vertex 3.03381 -17.7958 6
      vertex 3.42579 -18.4747 -2
    endloop
  endfacet
  facet normal -0.866026 -0.499999 0
    outer loop
      vertex 3.42579 -18.4747 -2
      vertex 3.03381 -17.7958 6
      vertex 3.03381 -17.7958 -2
    endloop
  endfacet
  facet normal -0.951056 -0.309018 0
    outer loop
      vertex 3.66805 -19.2203 6
      vertex 3.42579 -18.4747 6
      vertex 3.66805 -19.2203 -2
    endloop
  endfacet
  facet normal -0.951056 -0.309018 0
    outer loop
      vertex 3.66805 -19.2203 -2
      vertex 3.42579 -18.4747 6
      vertex 3.42579 -18.4747 -2
    endloop
  endfacet
  facet normal -0.994522 -0.104528 0
    outer loop
      vertex 3.75 -20 6
      vertex 3.66805 -19.2203 6
      vertex 3.75 -20 -2
    endloop
  endfacet
  facet normal -0.994522 -0.104528 0
    outer loop
      vertex 3.75 -20 -2
      vertex 3.66805 -19.2203 6
      vertex 3.66805 -19.2203 -2
    endloop
  endfacet
  facet normal -0.994522 0.104528 0
    outer loop
      vertex 3.75 -20 6
      vertex 3.75 -20 -2
      vertex 3.66805 -20.7797 6
    endloop
  endfacet
  facet normal -0.994522 0.104528 0
    outer loop
      vertex 3.66805 -20.7797 6
      vertex 3.75 -20 -2
      vertex 3.66805 -20.7797 -2
    endloop
  endfacet
  facet normal -0.951056 0.309018 0
    outer loop
      vertex 3.66805 -20.7797 6
      vertex 3.66805 -20.7797 -2
      vertex 3.42579 -21.5253 6
    endloop
  endfacet
  facet normal -0.951056 0.309018 0
    outer loop
      vertex 3.42579 -21.5253 6
      vertex 3.66805 -20.7797 -2
      vertex 3.42579 -21.5253 -2
    endloop
  endfacet
  facet normal -0.866026 0.499999 0
    outer loop
      vertex 3.42579 -21.5253 6
      vertex 3.42579 -21.5253 -2
      vertex 3.03381 -22.2042 6
    endloop
  endfacet
  facet normal -0.866026 0.499999 0
    outer loop
      vertex 3.03381 -22.2042 6
      vertex 3.42579 -21.5253 -2
      vertex 3.03381 -22.2042 -2
    endloop
  endfacet
  facet normal -0.743145 0.669131 0
    outer loop
      vertex 3.03381 -22.2042 6
      vertex 3.03381 -22.2042 -2
      vertex 2.50924 -22.7868 6
    endloop
  endfacet
  facet normal -0.743145 0.669131 0
    outer loop
      vertex 2.50924 -22.7868 6
      vertex 3.03381 -22.2042 -2
      vertex 2.50924 -22.7868 -2
    endloop
  endfacet
  facet normal -0.587785 0.809017 0
    outer loop
      vertex 2.50924 -22.7868 6
      vertex 2.50924 -22.7868 -2
      vertex 1.875 -23.2476 6
    endloop
  endfacet
  facet normal -0.587785 0.809017 0
    outer loop
      vertex 1.875 -23.2476 6
      vertex 2.50924 -22.7868 -2
      vertex 1.875 -23.2476 -2
    endloop
  endfacet
  facet normal -0.406737 0.913545 0
    outer loop
      vertex 1.875 -23.2476 6
      vertex 1.875 -23.2476 -2
      vertex 1.15881 -23.5665 6
    endloop
  endfacet
  facet normal -0.406737 0.913545 0
    outer loop
      vertex 1.15881 -23.5665 6
      vertex 1.875 -23.2476 -2
      vertex 1.15881 -23.5665 -2
    endloop
  endfacet
  facet normal -0.207911 0.978148 0
    outer loop
      vertex 1.15881 -23.5665 6
      vertex 1.15881 -23.5665 -2
      vertex 0.391982 -23.7295 6
    endloop
  endfacet
  facet normal -0.207911 0.978148 0
    outer loop
      vertex 0.391982 -23.7295 6
      vertex 1.15881 -23.5665 -2
      vertex 0.391982 -23.7295 -2
    endloop
  endfacet
  facet normal 0 1 0
    outer loop
      vertex 0.391982 -23.7295 6
      vertex 0.391982 -23.7295 -2
      vertex -0.391982 -23.7295 6
    endloop
  endfacet
  facet normal 0 1 0
    outer loop
      vertex -0.391982 -23.7295 6
      vertex 0.391982 -23.7295 -2
      vertex -0.391982 -23.7295 -2
    endloop
  endfacet
  facet normal 0.207911 0.978148 0
    outer loop
      vertex -0.391982 -23.7295 6
      vertex -0.391982 -23.7295 -2
      vertex -1.15881 -23.5665 6
    endloop
  endfacet
  facet normal 0.207911 0.978148 0
    outer loop
      vertex -1.15881 -23.5665 6
      vertex -0.391982 -23.7295 -2
      vertex -1.15881 -23.5665 -2
    endloop
  endfacet
  facet normal 0.406737 0.913545 0
    outer loop
      vertex -1.15881 -23.5665 6
      vertex -1.15881 -23.5665 -2
      vertex -1.875 -23.2476 6
    endloop
  endfacet
  facet normal 0.406737 0.913545 0
    outer loop
      vertex -1.875 -23.2476 6
      vertex -1.15881 -23.5665 -2
      vertex -1.875 -23.2476 -2
    endloop
  endfacet
  facet normal 0.587785 0.809017 0
    outer loop
      vertex -1.875 -23.2476 6
      vertex -1.875 -23.2476 -2
      vertex -2.50924 -22.7868 6
    endloop
  endfacet
  facet normal 0.587785 0.809017 0
    outer loop
      vertex -2.50924 -22.7868 6
      vertex -1.875 -23.2476 -2
      vertex -2.50924 -22.7868 -2
    endloop
  endfacet
  facet normal 0.743145 0.669131 0
    outer loop
      vertex -3.03381 -22.2042 6
      vertex -2.50924 -22.7868 6
      vertex -2.50924 -22.7868 -2
    endloop
  endfacet
  facet normal 0.743145 0.669131 0
    outer loop
      vertex -3.03381 -22.2042 -2
      vertex -3.03381 -22.2042 6
      vertex -2.50924 -22.7868 -2
    endloop
  endfacet
  facet normal 0.866026 0.499999 0
    outer loop
      vertex -3.42579 -21.5253 6
      vertex -3.03381 -22.2042 6
      vertex -3.03381 -22.2042 -2
    endloop
  endfacet
  facet normal 0.866026 0.499999 0
    outer loop
      vertex -3.42579 -21.5253 -2
      vertex -3.42579 -21.5253 6
      vertex -3.03381 -22.2042 -2
    endloop
  endfacet
  facet normal 0.951056 0.309018 0
    outer loop
      vertex -3.66805 -20.7797 6
      vertex -3.42579 -21.5253 6
      vertex -3.42579 -21.5253 -2
    endloop
  endfacet
  facet normal 0.951056 0.309018 0
    outer loop
      vertex -3.66805 -20.7797 -2
      vertex -3.66805 -20.7797 6
      vertex -3.42579 -21.5253 -2
    endloop
  endfacet
  facet normal 0.987688 -0.156435 0
    outer loop
      vertex 4.23915 22.7472 -2
      vertex 4.23915 22.7472 6
      vertex 4.2 22.5 6
    endloop
  endfacet
  facet normal 0.987688 -0.156435 0
    outer loop
      vertex 4.2 22.5 -2
      vertex 4.23915 22.7472 -2
      vertex 4.2 22.5 6
    endloop
  endfacet
  facet normal 0.987688 0.156435 0
    outer loop
      vertex 4.2 22.5 6
      vertex 4.23915 22.2528 6
      vertex 4.23915 22.2528 -2
    endloop
  endfacet
  facet normal 0.987688 0.156435 0
    outer loop
      vertex 4.2 22.5 -2
      vertex 4.2 22.5 6
      vertex 4.23915 22.2528 -2
    endloop
  endfacet
  facet normal 0.891007 -0.45399 0
    outer loop
      vertex 4.35279 22.9702 -2
      vertex 4.35279 22.9702 6
      vertex 4.23915 22.7472 6
    endloop
  endfacet
  facet normal 0.891007 -0.45399 0
    outer loop
      vertex 4.23915 22.7472 -2
      vertex 4.35279 22.9702 -2
      vertex 4.23915 22.7472 6
    endloop
  endfacet
  facet normal 0.707107 -0.707107 0
    outer loop
      vertex 4.52977 23.1472 -2
      vertex 4.52977 23.1472 6
      vertex 4.35279 22.9702 6
    endloop
  endfacet
  facet normal 0.707107 -0.707107 0
    outer loop
      vertex 4.35279 22.9702 -2
      vertex 4.52977 23.1472 -2
      vertex 4.35279 22.9702 6
    endloop
  endfacet
  facet normal 0.45399 -0.891007 0
    outer loop
      vertex 4.75279 23.2608 -2
      vertex 4.75279 23.2608 6
      vertex 4.52977 23.1472 6
    endloop
  endfacet
  facet normal 0.45399 -0.891007 0
    outer loop
      vertex 4.52977 23.1472 -2
      vertex 4.75279 23.2608 -2
      vertex 4.52977 23.1472 6
    endloop
  endfacet
  facet normal 0.156435 -0.987688 0
    outer loop
      vertex 5 23.3 -2
      vertex 5 23.3 6
      vertex 4.75279 23.2608 6
    endloop
  endfacet
  facet normal 0.156435 -0.987688 0
    outer loop
      vertex 4.75279 23.2608 -2
      vertex 5 23.3 -2
      vertex 4.75279 23.2608 6
    endloop
  endfacet
  facet normal -0.156435 -0.987688 0
    outer loop
      vertex 5.24721 23.2608 -2
      vertex 5.24721 23.2608 6
      vertex 5 23.3 6
    endloop
  endfacet
  facet normal -0.156435 -0.987688 0
    outer loop
      vertex 5 23.3 -2
      vertex 5.24721 23.2608 -2
      vertex 5 23.3 6
    endloop
  endfacet
  facet normal -0.45399 -0.891007 0
    outer loop
      vertex 5.47023 23.1472 -2
      vertex 5.47023 23.1472 6
      vertex 5.24721 23.2608 6
    endloop
  endfacet
  facet normal -0.45399 -0.891007 0
    outer loop
      vertex 5.24721 23.2608 -2
      vertex 5.47023 23.1472 -2
      vertex 5.24721 23.2608 6
    endloop
  endfacet
  facet normal -0.707107 -0.707107 0
    outer loop
      vertex 5.64721 22.9702 6
      vertex 5.47023 23.1472 6
      vertex 5.64721 22.9702 -2
    endloop
  endfacet
  facet normal -0.707107 -0.707107 0
    outer loop
      vertex 5.64721 22.9702 -2
      vertex 5.47023 23.1472 6
      vertex 5.47023 23.1472 -2
    endloop
  endfacet
  facet normal -0.891007 -0.45399 0
    outer loop
      vertex 5.76084 22.7472 6
      vertex 5.64721 22.9702 6
      vertex 5.76084 22.7472 -2
    endloop
  endfacet
  facet normal -0.891007 -0.45399 0
    outer loop
      vertex 5.76084 22.7472 -2
      vertex 5.64721 22.9702 6
      vertex 5.64721 22.9702 -2
    endloop
  endfacet
  facet normal -0.987688 -0.156435 0
    outer loop
      vertex 5.8 22.5 6
      vertex 5.76084 22.7472 6
      vertex 5.8 22.5 -2
    endloop
  endfacet
  facet normal -0.987688 -0.156435 0
    outer loop
      vertex 5.8 22.5 -2
      vertex 5.76084 22.7472 6
      vertex 5.76084 22.7472 -2
    endloop
  endfacet
  facet normal -0.987688 0.156435 0
    outer loop
      vertex 5.8 22.5 6
      vertex 5.8 22.5 -2
      vertex 5.76084 22.2528 6
    endloop
  endfacet
  facet normal -0.987688 0.156435 0
    outer loop
      vertex 5.76084 22.2528 6
      vertex 5.8 22.5 -2
      vertex 5.76084 22.2528 -2
    endloop
  endfacet
  facet normal -0.891007 0.45399 0
    outer loop
      vertex 5.76084 22.2528 6
      vertex 5.76084 22.2528 -2
      vertex 5.64721 22.0298 6
    endloop
  endfacet
  facet normal -0.891007 0.45399 0
    outer loop
      vertex 5.64721 22.0298 6
      vertex 5.76084 22.2528 -2
      vertex 5.64721 22.0298 -2
    endloop
  endfacet
  facet normal -0.707107 0.707107 0
    outer loop
      vertex 5.64721 22.0298 6
      vertex 5.64721 22.0298 -2
      vertex 5.47023 21.8528 6
    endloop
  endfacet
  facet normal -0.707107 0.707107 0
    outer loop
      vertex 5.47023 21.8528 6
      vertex 5.64721 22.0298 -2
      vertex 5.47023 21.8528 -2
    endloop
  endfacet
  facet normal -0.45399 0.891007 0
    outer loop
      vertex 5.47023 21.8528 6
      vertex 5.47023 21.8528 -2
      vertex 5.24721 21.7392 6
    endloop
  endfacet
  facet normal -0.45399 0.891007 0
    outer loop
      vertex 5.24721 21.7392 6
      vertex 5.47023 21.8528 -2
      vertex 5.24721 21.7392 -2
    endloop
  endfacet
  facet normal -0.156435 0.987688 0
    outer loop
      vertex 5.24721 21.7392 6
      vertex 5.24721 21.7392 -2
      vertex 5 21.7 6
    endloop
  endfacet
  facet normal -0.156435 0.987688 0
    outer loop
      vertex 5 21.7 6
      vertex 5.24721 21.7392 -2
      vertex 5 21.7 -2
    endloop
  endfacet
  facet normal 0.156435 0.987688 0
    outer loop
      vertex 5 21.7 6
      vertex 5 21.7 -2
      vertex 4.75279 21.7392 6
    endloop
  endfacet
  facet normal 0.156435 0.987688 0
    outer loop
      vertex 4.75279 21.7392 6
      vertex 5 21.7 -2
      vertex 4.75279 21.7392 -2
    endloop
  endfacet
  facet normal 0.45399 0.891007 0
    outer loop
      vertex 4.75279 21.7392 6
      vertex 4.75279 21.7392 -2
      vertex 4.52977 21.8528 6
    endloop
  endfacet
  facet normal 0.45399 0.891007 0
    outer loop
      vertex 4.52977 21.8528 6
      vertex 4.75279 21.7392 -2
      vertex 4.52977 21.8528 -2
    endloop
  endfacet
  facet normal 0.707107 0.707107 0
    outer loop
      vertex 4.35279 22.0298 6
      vertex 4.52977 21.8528 6
      vertex 4.52977 21.8528 -2
    endloop
  endfacet
  facet normal 0.707107 0.707107 0
    outer loop
      vertex 4.35279 22.0298 -2
      vertex 4.35279 22.0298 6
      vertex 4.52977 21.8528 -2
    endloop
  endfacet
  facet normal 0.891007 0.45399 0
    outer loop
      vertex 4.23915 22.2528 6
      vertex 4.35279 22.0298 6
      vertex 4.35279 22.0298 -2
    endloop
  endfacet
  facet normal 0.891007 0.45399 0
    outer loop
      vertex 4.23915 22.2528 -2
      vertex 4.23915 22.2528 6
      vertex 4.35279 22.0298 -2
    endloop
  endfacet
  facet normal -1 0 0
    outer loop
      vertex 2.667 20 6
      vertex 2.667 20 0.5
      vertex 2.667 -17.3884 6
    endloop
  endfacet
  facet normal -1 0 0
    outer loop
      vertex 2.667 -17.3884 6
      vertex 2.667 20 0.5
      vertex 2.667 -17.3884 0.5
    endloop
  endfacet
  facet normal 0 -1 0
    outer loop
      vertex -2.667 20 6
      vertex -2.667 20 0.5
      vertex 2.667 20 0.5
    endloop
  endfacet
  facet normal 0 -1 0
    outer loop
      vertex 2.667 20 6
      vertex -2.667 20 6
      vertex 2.667 20 0.5
    endloop
  endfacet
  facet normal 1 0 0
    outer loop
      vertex -2.667 20 0.5
      vertex -2.667 20 6
      vertex -2.667 -17.3884 6
    endloop
  endfacet
  facet normal 1 0 0
    outer loop
      vertex -2.667 -17.3884 0.5
      vertex -2.667 20 0.5
      vertex -2.667 -17.3884 6
    endloop
  endfacet
  facet normal 0 0 1
    outer loop
      vertex 2.667 20 0.5
      vertex -1.875 -16.7524 0.5
      vertex -1.15881 -16.4335 0.5
    endloop
  endfacet
  facet normal 0 0 1
    outer loop
      vertex 0.391982 -16.2705 0.5
      vertex 2.667 20 0.5
      vertex -0.391982 -16.2705 0.5
    endloop
  endfacet
  facet normal 0 0 1
    outer loop
      vertex -0.391982 -16.2705 0.5
      vertex 2.667 20 0.5
      vertex -1.15881 -16.4335 0.5
    endloop
  endfacet
  facet normal 0 0 1
    outer loop
      vertex -2.50924 -17.2132 0.5
      vertex -1.875 -16.7524 0.5
      vertex 2.667 20 0.5
    endloop
  endfacet
  facet normal 0 0 1
    outer loop
      vertex 1.15881 -16.4335 0.5
      vertex 2.667 20 0.5
      vertex 0.391982 -16.2705 0.5
    endloop
  endfacet
  facet normal 0 0 1
    outer loop
      vertex 1.875 -16.7524 0.5
      vertex 2.667 20 0.5
      vertex 1.15881 -16.4335 0.5
    endloop
  endfacet
  facet normal 0 0 1
    outer loop
      vertex 2.50924 -17.2132 0.5
      vertex 2.667 20 0.5
      vertex 1.875 -16.7524 0.5
    endloop
  endfacet
  facet normal 0 0 1
    outer loop
      vertex 2.667 -17.3884 0.5
      vertex 2.667 20 0.5
      vertex 2.50924 -17.2132 0.5
    endloop
  endfacet
  facet normal 0 0 1
    outer loop
      vertex 2.667 20 0.5
      vertex -2.667 20 0.5
      vertex -2.50924 -17.2132 0.5
    endloop
  endfacet
  facet normal 0 0 1
    outer loop
      vertex -2.667 20 0.5
      vertex -2.667 -17.3884 0.5
      vertex -2.50924 -17.2132 0.5
    endloop
  endfacet
endsolid OpenSCAD_Model
