solid OpenSCAD_Model
  facet normal -1 0 0
    outer loop
      vertex -10 21.75 -2
      vertex -10 21.75 2
      vertex -10 23.25 -2
    endloop
  endfacet
  facet normal -1 0 0
    outer loop
      vertex -10 23.25 -2
      vertex -10 21.75 2
      vertex -10 23.25 2
    endloop
  endfacet
  facet normal -0.866025 -0.5 0
    outer loop
      vertex -10 21.75 -2
      vertex -9.125 20.2345 -2
      vertex -10 21.75 2
    endloop
  endfacet
  facet normal -0.866025 -0.5 0
    outer loop
      vertex -10 21.75 2
      vertex -9.125 20.2345 -2
      vertex -9.125 20.2345 2
    endloop
  endfacet
  facet normal 0 0 -1
    outer loop
      vertex -10 21.75 -2
      vertex -10 23.25 -2
      vertex -9.125 20.2345 -2
    endloop
  endfacet
  facet normal 0 0 -1
    outer loop
      vertex -9.125 20.2345 -2
      vertex -10 23.25 -2
      vertex -9.125 24.7655 -2
    endloop
  endfacet
  facet normal 0 0 -1
    outer loop
      vertex -9.125 20.2345 -2
      vertex -9.125 24.7655 -2
      vertex -8.25 24.7655 -2
    endloop
  endfacet
  facet normal 0 0 -1
    outer loop
      vertex -8.25 24.7655 -2
      vertex -8.25 25 -2
      vertex 8.25 25 -2
    endloop
  endfacet
  facet normal 0 0 -1
    outer loop
      vertex 7.03262 23.8315 -2
      vertex 9.125 24.7655 -2
      vertex 10 23.25 -2
    endloop
  endfacet
  facet normal 0 0 -1
    outer loop
      vertex 8 22.5 -2
      vertex 10 23.25 -2
      vertex 10 21.75 -2
    endloop
  endfacet
  facet normal 0 0 -1
    outer loop
      vertex 8.25 20.2345 -2
      vertex 10 21.75 -2
      vertex 9.125 20.2345 -2
    endloop
  endfacet
  facet normal 0 0 -1
    outer loop
      vertex 6.6 21.1 -2
      vertex -8.25 20.2345 -2
      vertex -9.125 20.2345 -2
    endloop
  endfacet
  facet normal 0 0 -1
    outer loop
      vertex 6.6 21.1 -2
      vertex -9.125 20.2345 -2
      vertex -6.6 21.1 -2
    endloop
  endfacet
  facet normal 0 0 -1
    outer loop
      vertex -5 20 -2
      vertex 5 20 -2
      vertex 5 -21 -2
    endloop
  endfacet
  facet normal 0 0 -1
    outer loop
      vertex -8.25 20.2345 -2
      vertex -5 20 -2
      vertex -8.25 20 -2
    endloop
  endfacet
  facet normal 0 0 -1
    outer loop
      vertex 1 -25 -2
      vertex -1 -25 -2
      vertex -1 -24.9123 -2
    endloop
  endfacet
  facet normal 0 0 -1
    outer loop
      vertex -3.99404 -23.6525 -2
      vertex -4.88377 -21.9573 -2
      vertex -4.88377 -21 -2
    endloop
  endfacet
  facet normal 0 0 -1
    outer loop
      vertex -5 20 -2
      vertex 5 -21 -2
      vertex 3.42579 -18.4747 -2
    endloop
  endfacet
  facet normal 0 0 -1
    outer loop
      vertex -8.25 20.2345 -2
      vertex 8.25 20 -2
      vertex 5 20 -2
    endloop
  endfacet
  facet normal 0 0 -1
    outer loop
      vertex -8.25 20.2345 -2
      vertex 5 20 -2
      vertex -5 20 -2
    endloop
  endfacet
  facet normal 0 0 -1
    outer loop
      vertex 8.25 20.2345 -2
      vertex 8.25 20 -2
      vertex -8.25 20.2345 -2
    endloop
  endfacet
  facet normal 0 0 -1
    outer loop
      vertex -8.25 24.7655 -2
      vertex -7.73262 23.3229 -2
      vertex -9.125 20.2345 -2
    endloop
  endfacet
  facet normal 0 0 -1
    outer loop
      vertex -7.73262 23.3229 -2
      vertex -7.73262 21.6771 -2
      vertex -9.125 20.2345 -2
    endloop
  endfacet
  facet normal 0 0 -1
    outer loop
      vertex -7.73262 21.6771 -2
      vertex -6.6 21.3091 -2
      vertex -9.125 20.2345 -2
    endloop
  endfacet
  facet normal 0 0 -1
    outer loop
      vertex -6.6 21.3091 -2
      vertex -6.6 21.1 -2
      vertex -9.125 20.2345 -2
    endloop
  endfacet
  facet normal 0 0 -1
    outer loop
      vertex 8.25 20.2345 -2
      vertex -8.25 20.2345 -2
      vertex 6.6 21.1 -2
    endloop
  endfacet
  facet normal 0 0 -1
    outer loop
      vertex 8 22.5 -2
      vertex 10 21.75 -2
      vertex 7.03262 21.1685 -2
    endloop
  endfacet
  facet normal 0 0 -1
    outer loop
      vertex 7.03262 21.1685 -2
      vertex 6.6 21.1 -2
      vertex 6.6 21.3091 -2
    endloop
  endfacet
  facet normal 0 0 -1
    outer loop
      vertex 8.25 20.2345 -2
      vertex 6.6 21.1 -2
      vertex 7.03262 21.1685 -2
    endloop
  endfacet
  facet normal 0 0 -1
    outer loop
      vertex 8.25 20.2345 -2
      vertex 7.03262 21.1685 -2
      vertex 10 21.75 -2
    endloop
  endfacet
  facet normal 0 0 -1
    outer loop
      vertex 6.6 23.9 -2
      vertex 9.125 24.7655 -2
      vertex 7.03262 23.8315 -2
    endloop
  endfacet
  facet normal 0 0 -1
    outer loop
      vertex 6.6 23.9 -2
      vertex 7.03262 23.8315 -2
      vertex 6.6 23.6909 -2
    endloop
  endfacet
  facet normal 0 0 -1
    outer loop
      vertex -8.25 24.7655 -2
      vertex 8.25 25 -2
      vertex -6.6 23.9 -2
    endloop
  endfacet
  facet normal 0 0 -1
    outer loop
      vertex -8.25 24.7655 -2
      vertex -6.6 23.9 -2
      vertex -7.73262 23.3229 -2
    endloop
  endfacet
  facet normal 0 0 -1
    outer loop
      vertex -3.03381 -22.2042 -2
      vertex -2.41842 -24.7401 -2
      vertex -3.42579 -21.5253 -2
    endloop
  endfacet
  facet normal 0 0 -1
    outer loop
      vertex -6.6 23.9 -2
      vertex -6.6 23.6909 -2
      vertex -7.73262 23.3229 -2
    endloop
  endfacet
  facet normal 0 0 -1
    outer loop
      vertex -3.66805 -20.7797 -2
      vertex -3.99404 -23.6525 -2
      vertex -3.75 -20 -2
    endloop
  endfacet
  facet normal 0 0 -1
    outer loop
      vertex -2.41842 -24.7401 -2
      vertex -3.99404 -23.6525 -2
      vertex -3.66805 -20.7797 -2
    endloop
  endfacet
  facet normal 0 0 -1
    outer loop
      vertex -2.41842 -24.7401 -2
      vertex -3.66805 -20.7797 -2
      vertex -3.42579 -21.5253 -2
    endloop
  endfacet
  facet normal 0 0 -1
    outer loop
      vertex -2.50924 -22.7868 -2
      vertex -2.41842 -24.7401 -2
      vertex -3.03381 -22.2042 -2
    endloop
  endfacet
  facet normal 0 0 -1
    outer loop
      vertex 1 -25 -2
      vertex -1 -24.9123 -2
      vertex -1.15881 -23.5665 -2
    endloop
  endfacet
  facet normal 0 0 -1
    outer loop
      vertex 1 -25 -2
      vertex -1.15881 -23.5665 -2
      vertex -0.391982 -23.7295 -2
    endloop
  endfacet
  facet normal 0 0 -1
    outer loop
      vertex 1 -25 -2
      vertex -0.391982 -23.7295 -2
      vertex 0.391982 -23.7295 -2
    endloop
  endfacet
  facet normal 0 0 -1
    outer loop
      vertex 3.27226 -24.2919 -2
      vertex 1.48215 -24.9708 -2
      vertex 1.15881 -23.5665 -2
    endloop
  endfacet
  facet normal 0 0 -1
    outer loop
      vertex 3.27226 -24.2919 -2
      vertex 1.15881 -23.5665 -2
      vertex 1.875 -23.2476 -2
    endloop
  endfacet
  facet normal 0 0 -1
    outer loop
      vertex 3.27226 -24.2919 -2
      vertex 1.875 -23.2476 -2
      vertex 2.50924 -22.7868 -2
    endloop
  endfacet
  facet normal 0 0 -1
    outer loop
      vertex 4.54182 -22.8589 -2
      vertex 3.27226 -24.2919 -2
      vertex 3.03381 -22.2042 -2
    endloop
  endfacet
  facet normal 0 0 -1
    outer loop
      vertex 4.54182 -22.8589 -2
      vertex 3.03381 -22.2042 -2
      vertex 3.42579 -21.5253 -2
    endloop
  endfacet
  facet normal 0 0 -1
    outer loop
      vertex 4.54182 -22.8589 -2
      vertex 3.42579 -21.5253 -2
      vertex 3.66805 -20.7797 -2
    endloop
  endfacet
  facet normal 0 0 -1
    outer loop
      vertex -6.6 23.9 -2
      vertex 9.125 24.7655 -2
      vertex 6.6 23.9 -2
    endloop
  endfacet
  facet normal 0 0 -1
    outer loop
      vertex 5 -21 -2
      vertex 4.54182 -22.8589 -2
      vertex 3.75 -20 -2
    endloop
  endfacet
  facet normal 0 0 -1
    outer loop
      vertex -6.6 23.9 -2
      vertex 8.25 24.7655 -2
      vertex 9.125 24.7655 -2
    endloop
  endfacet
  facet normal 0 0 -1
    outer loop
      vertex 5 -21 -2
      vertex 3.75 -20 -2
      vertex 3.66805 -19.2203 -2
    endloop
  endfacet
  facet normal 0 0 -1
    outer loop
      vertex 5 -21 -2
      vertex 3.66805 -19.2203 -2
      vertex 3.42579 -18.4747 -2
    endloop
  endfacet
  facet normal 0 0 -1
    outer loop
      vertex -6.6 23.9 -2
      vertex 8.25 25 -2
      vertex 8.25 24.7655 -2
    endloop
  endfacet
  facet normal 0 0 -1
    outer loop
      vertex 7.03262 23.8315 -2
      vertex 10 23.25 -2
      vertex 8 22.5 -2
    endloop
  endfacet
  facet normal 0 0 -1
    outer loop
      vertex 3.75 -20 -2
      vertex 4.54182 -22.8589 -2
      vertex 3.66805 -20.7797 -2
    endloop
  endfacet
  facet normal 0 0 -1
    outer loop
      vertex -5 20 -2
      vertex 3.42579 -18.4747 -2
      vertex 3.03381 -17.7958 -2
    endloop
  endfacet
  facet normal 0 0 -1
    outer loop
      vertex 2.50924 -17.2132 -2
      vertex -5 20 -2
      vertex 3.03381 -17.7958 -2
    endloop
  endfacet
  facet normal 0 0 -1
    outer loop
      vertex -1.15881 -23.5665 -2
      vertex -1 -24.9123 -2
      vertex -1.875 -23.2476 -2
    endloop
  endfacet
  facet normal 0 0 -1
    outer loop
      vertex -2.41842 -24.7401 -2
      vertex -2.50924 -22.7868 -2
      vertex -1.875 -23.2476 -2
    endloop
  endfacet
  facet normal 0 0 -1
    outer loop
      vertex 1.15881 -23.5665 -2
      vertex 1 -24.9123 -2
      vertex 0.391982 -23.7295 -2
    endloop
  endfacet
  facet normal 0 0 -1
    outer loop
      vertex -2.41842 -24.7401 -2
      vertex -1.875 -23.2476 -2
      vertex -1 -24.9123 -2
    endloop
  endfacet
  facet normal 0 0 -1
    outer loop
      vertex -1.875 -16.7524 -2
      vertex -5 20 -2
      vertex -1.15881 -16.4335 -2
    endloop
  endfacet
  facet normal 0 0 -1
    outer loop
      vertex -5 20 -2
      vertex 2.50924 -17.2132 -2
      vertex 1.875 -16.7524 -2
    endloop
  endfacet
  facet normal 0 0 -1
    outer loop
      vertex -5 20 -2
      vertex 1.875 -16.7524 -2
      vertex 1.15881 -16.4335 -2
    endloop
  endfacet
  facet normal 0 0 -1
    outer loop
      vertex -5 20 -2
      vertex 1.15881 -16.4335 -2
      vertex 0.391982 -16.2705 -2
    endloop
  endfacet
  facet normal 0 0 -1
    outer loop
      vertex -5 20 -2
      vertex 0.391982 -16.2705 -2
      vertex -0.391982 -16.2705 -2
    endloop
  endfacet
  facet normal 0 0 -1
    outer loop
      vertex 1.15881 -23.5665 -2
      vertex 1.48215 -24.9708 -2
      vertex 1 -24.9123 -2
    endloop
  endfacet
  facet normal 0 0 -1
    outer loop
      vertex 3.03381 -22.2042 -2
      vertex 3.27226 -24.2919 -2
      vertex 2.50924 -22.7868 -2
    endloop
  endfacet
  facet normal 0 0 -1
    outer loop
      vertex -5 20 -2
      vertex -0.391982 -16.2705 -2
      vertex -1.15881 -16.4335 -2
    endloop
  endfacet
  facet normal 0 0 -1
    outer loop
      vertex 1 -24.9123 -2
      vertex 1 -25 -2
      vertex 0.391982 -23.7295 -2
    endloop
  endfacet
  facet normal 0 0 -1
    outer loop
      vertex -5 20 -2
      vertex -1.875 -16.7524 -2
      vertex -2.50924 -17.2132 -2
    endloop
  endfacet
  facet normal 0 0 -1
    outer loop
      vertex -5 20 -2
      vertex -2.50924 -17.2132 -2
      vertex -3.03381 -17.7958 -2
    endloop
  endfacet
  facet normal 0 0 -1
    outer loop
      vertex -5 20 -2
      vertex -3.03381 -17.7958 -2
      vertex -3.42579 -18.4747 -2
    endloop
  endfacet
  facet normal 0 0 -1
    outer loop
      vertex -5 20 -2
      vertex -3.42579 -18.4747 -2
      vertex -3.66805 -19.2203 -2
    endloop
  endfacet
  facet normal 0 0 -1
    outer loop
      vertex -5 20 -2
      vertex -3.66805 -19.2203 -2
      vertex -3.75 -20 -2
    endloop
  endfacet
  facet normal 0 0 -1
    outer loop
      vertex -5 20 -2
      vertex -3.75 -20 -2
      vertex -3.99404 -23.6525 -2
    endloop
  endfacet
  facet normal 0 0 -1
    outer loop
      vertex -5 20 -2
      vertex -3.99404 -23.6525 -2
      vertex -4.88377 -21 -2
    endloop
  endfacet
  facet normal 0 0 -1
    outer loop
      vertex -5 20 -2
      vertex -4.88377 -21 -2
      vertex -5 -21 -2
    endloop
  endfacet
  facet normal -0.866025 0.5 0
    outer loop
      vertex -10 23.25 -2
      vertex -10 23.25 2
      vertex -9.125 24.7655 -2
    endloop
  endfacet
  facet normal -0.866025 0.5 0
    outer loop
      vertex -9.125 24.7655 -2
      vertex -10 23.25 2
      vertex -9.125 24.7655 2
    endloop
  endfacet
  facet normal 0 0 1
    outer loop
      vertex -10 23.25 2
      vertex -10 21.75 2
      vertex -9.125 20.2345 2
    endloop
  endfacet
  facet normal 0 0 1
    outer loop
      vertex -7.73262 21.6771 2
      vertex -10 23.25 2
      vertex -8.25 20.2345 2
    endloop
  endfacet
  facet normal 0 0 1
    outer loop
      vertex -8.25 20.2345 2
      vertex -10 23.25 2
      vertex -9.125 20.2345 2
    endloop
  endfacet
  facet normal 0 0 1
    outer loop
      vertex -5 20 2
      vertex -8.25 20.2345 2
      vertex -8.25 20 2
    endloop
  endfacet
  facet normal 0 0 1
    outer loop
      vertex 6.6 21.1 2
      vertex 8.25 20.2345 2
      vertex 9.125 20.2345 2
    endloop
  endfacet
  facet normal 0 0 1
    outer loop
      vertex -4.88377 -21 2
      vertex -5 20 2
      vertex -5 -21 2
    endloop
  endfacet
  facet normal 0 0 1
    outer loop
      vertex -3.99404 -23.6525 2
      vertex -5 20 2
      vertex -4.88377 -21 2
    endloop
  endfacet
  facet normal 0 0 1
    outer loop
      vertex -3.99404 -23.6525 2
      vertex -4.88377 -21 2
      vertex -4.88377 -21.9573 2
    endloop
  endfacet
  facet normal 0 0 1
    outer loop
      vertex -3.75 -20 2
      vertex -5 20 2
      vertex -3.99404 -23.6525 2
    endloop
  endfacet
  facet normal 0 0 1
    outer loop
      vertex -1.15881 -23.5665 2
      vertex -1.875 -23.2476 2
      vertex -1 -24.9123 2
    endloop
  endfacet
  facet normal 0 0 1
    outer loop
      vertex 1.875 -23.2476 2
      vertex 1.15881 -23.5665 2
      vertex 1.48215 -24.9708 2
    endloop
  endfacet
  facet normal 0 0 1
    outer loop
      vertex 1 -25 2
      vertex -1 -24.9123 2
      vertex -1 -25 2
    endloop
  endfacet
  facet normal 0 0 1
    outer loop
      vertex 3.66805 -19.2203 2
      vertex 3.75 -20 2
      vertex 4.54182 -22.8589 2
    endloop
  endfacet
  facet normal 0 0 1
    outer loop
      vertex 2.4 3.975 2
      vertex 3.03381 -17.7958 2
      vertex 3.42579 -18.4747 2
    endloop
  endfacet
  facet normal 0 0 1
    outer loop
      vertex -2.4 -17.1338 2
      vertex -2.4 3.975 2
      vertex -5 20 2
    endloop
  endfacet
  facet normal 0 0 1
    outer loop
      vertex 6.6 23.6909 2
      vertex 7.03262 23.8315 2
      vertex 6.6 23.9 2
    endloop
  endfacet
  facet normal 0 0 1
    outer loop
      vertex 6.6 21.1 2
      vertex 8.25 20 2
      vertex 8.25 20.2345 2
    endloop
  endfacet
  facet normal 0 0 1
    outer loop
      vertex -6.6 23.9 2
      vertex 8.25 24.7655 2
      vertex 8.25 25 2
    endloop
  endfacet
  facet normal 0 0 1
    outer loop
      vertex -8.25 25 2
      vertex -8.25 24.7655 2
      vertex 8.25 25 2
    endloop
  endfacet
  facet normal 0 0 1
    outer loop
      vertex -6.6 21.1 2
      vertex -7.73262 21.6771 2
      vertex -5 20 2
    endloop
  endfacet
  facet normal 0 0 1
    outer loop
      vertex -5 20 2
      vertex -7.73262 21.6771 2
      vertex -8.25 20.2345 2
    endloop
  endfacet
  facet normal 0 0 1
    outer loop
      vertex -6.6 23.9 2
      vertex 9.125 24.7655 2
      vertex 8.25 24.7655 2
    endloop
  endfacet
  facet normal 0 0 1
    outer loop
      vertex 6.6 21.1 2
      vertex 5 20 2
      vertex 8.25 20 2
    endloop
  endfacet
  facet normal 0 0 1
    outer loop
      vertex -8.25 24.7655 2
      vertex -10 23.25 2
      vertex -6.6 23.6909 2
    endloop
  endfacet
  facet normal 0 0 1
    outer loop
      vertex -8.25 24.7655 2
      vertex -6.6 23.9 2
      vertex 8.25 25 2
    endloop
  endfacet
  facet normal 0 0 1
    outer loop
      vertex -8.25 24.7655 2
      vertex -6.6 23.6909 2
      vertex -6.6 23.9 2
    endloop
  endfacet
  facet normal 0 0 1
    outer loop
      vertex 8 22.5 2
      vertex 7.03262 21.1685 2
      vertex 10 21.75 2
    endloop
  endfacet
  facet normal 0 0 1
    outer loop
      vertex 9.125 24.7655 2
      vertex 7.03262 23.8315 2
      vertex 10 23.25 2
    endloop
  endfacet
  facet normal 0 0 1
    outer loop
      vertex 9.125 24.7655 2
      vertex 6.6 23.9 2
      vertex 7.03262 23.8315 2
    endloop
  endfacet
  facet normal 0 0 1
    outer loop
      vertex 10 23.25 2
      vertex 8 22.5 2
      vertex 10 21.75 2
    endloop
  endfacet
  facet normal 0 0 1
    outer loop
      vertex 7.03262 23.8315 2
      vertex 8 22.5 2
      vertex 10 23.25 2
    endloop
  endfacet
  facet normal 0 0 1
    outer loop
      vertex 10 21.75 2
      vertex 7.03262 21.1685 2
      vertex 9.125 20.2345 2
    endloop
  endfacet
  facet normal 0 0 1
    outer loop
      vertex -6.6 23.9 2
      vertex 6.6 23.9 2
      vertex 9.125 24.7655 2
    endloop
  endfacet
  facet normal 0 0 1
    outer loop
      vertex -7.73262 23.3229 2
      vertex -6.6 23.6909 2
      vertex -10 23.25 2
    endloop
  endfacet
  facet normal 0 0 1
    outer loop
      vertex 7.03262 21.1685 2
      vertex 6.6 21.1 2
      vertex 9.125 20.2345 2
    endloop
  endfacet
  facet normal 0 0 1
    outer loop
      vertex 6.6 21.1 2
      vertex -6.6 21.1 2
      vertex 5 20 2
    endloop
  endfacet
  facet normal 0 0 1
    outer loop
      vertex 5 20 2
      vertex -6.6 21.1 2
      vertex -5 20 2
    endloop
  endfacet
  facet normal 0 0 1
    outer loop
      vertex 6.6 21.3091 2
      vertex 6.6 21.1 2
      vertex 7.03262 21.1685 2
    endloop
  endfacet
  facet normal 0 0 1
    outer loop
      vertex -2.41842 -24.7401 2
      vertex -3.66805 -20.7797 2
      vertex -3.99404 -23.6525 2
    endloop
  endfacet
  facet normal 0 0 1
    outer loop
      vertex -3.66805 -20.7797 2
      vertex -3.75 -20 2
      vertex -3.99404 -23.6525 2
    endloop
  endfacet
  facet normal 0 0 1
    outer loop
      vertex -3.42579 -18.4747 2
      vertex -5 20 2
      vertex -3.66805 -19.2203 2
    endloop
  endfacet
  facet normal 0 0 1
    outer loop
      vertex -3.03381 -17.7958 2
      vertex -5 20 2
      vertex -3.42579 -18.4747 2
    endloop
  endfacet
  facet normal 0 0 1
    outer loop
      vertex -0.391982 -23.7295 2
      vertex -1.15881 -23.5665 2
      vertex -1 -24.9123 2
    endloop
  endfacet
  facet normal 0 0 1
    outer loop
      vertex -2.4 -17.1338 2
      vertex -5 20 2
      vertex -2.50924 -17.2132 2
    endloop
  endfacet
  facet normal 0 0 1
    outer loop
      vertex -1.875 -23.2476 2
      vertex -2.50924 -22.7868 2
      vertex -2.41842 -24.7401 2
    endloop
  endfacet
  facet normal 0 0 1
    outer loop
      vertex 2.4 3.975 2
      vertex 2.4 -17.1338 2
      vertex 2.50924 -17.2132 2
    endloop
  endfacet
  facet normal 0 0 1
    outer loop
      vertex 1 -24.9123 2
      vertex 0.391982 -23.7295 2
      vertex 1 -25 2
    endloop
  endfacet
  facet normal 0 0 1
    outer loop
      vertex 2.4 3.975 2
      vertex 2.50924 -17.2132 2
      vertex 3.03381 -17.7958 2
    endloop
  endfacet
  facet normal 0 0 1
    outer loop
      vertex 5 20 2
      vertex -5 20 2
      vertex 0 6.375 2
    endloop
  endfacet
  facet normal 0 0 1
    outer loop
      vertex 5 20 2
      vertex 0 6.375 2
      vertex 1.69706 5.67206 2
    endloop
  endfacet
  facet normal 0 0 1
    outer loop
      vertex 5 20 2
      vertex 2.4 3.975 2
      vertex 5 -21 2
    endloop
  endfacet
  facet normal 0 0 1
    outer loop
      vertex 5 20 2
      vertex 1.69706 5.67206 2
      vertex 2.4 3.975 2
    endloop
  endfacet
  facet normal 0 0 1
    outer loop
      vertex -2.50924 -22.7868 2
      vertex -3.03381 -22.2042 2
      vertex -2.41842 -24.7401 2
    endloop
  endfacet
  facet normal 0 0 1
    outer loop
      vertex 2.4 3.975 2
      vertex 3.42579 -18.4747 2
      vertex 3.66805 -19.2203 2
    endloop
  endfacet
  facet normal 0 0 1
    outer loop
      vertex 2.4 3.975 2
      vertex 3.66805 -19.2203 2
      vertex 4.54182 -22.8589 2
    endloop
  endfacet
  facet normal 0 0 1
    outer loop
      vertex 2.4 3.975 2
      vertex 4.54182 -22.8589 2
      vertex 5 -21 2
    endloop
  endfacet
  facet normal 0 0 1
    outer loop
      vertex -1.69706 5.67206 2
      vertex 0 6.375 2
      vertex -5 20 2
    endloop
  endfacet
  facet normal 0 0 1
    outer loop
      vertex 3.03381 -22.2042 2
      vertex 2.50924 -22.7868 2
      vertex 3.27226 -24.2919 2
    endloop
  endfacet
  facet normal 0 0 1
    outer loop
      vertex 4.54182 -22.8589 2
      vertex 3.66805 -20.7797 2
      vertex 3.27226 -24.2919 2
    endloop
  endfacet
  facet normal 0 0 1
    outer loop
      vertex 3.66805 -20.7797 2
      vertex 3.42579 -21.5253 2
      vertex 3.27226 -24.2919 2
    endloop
  endfacet
  facet normal 0 0 1
    outer loop
      vertex 3.42579 -21.5253 2
      vertex 3.03381 -22.2042 2
      vertex 3.27226 -24.2919 2
    endloop
  endfacet
  facet normal 0 0 1
    outer loop
      vertex 3.27226 -24.2919 2
      vertex 2.50924 -22.7868 2
      vertex 1.48215 -24.9708 2
    endloop
  endfacet
  facet normal 0 0 1
    outer loop
      vertex 2.50924 -22.7868 2
      vertex 1.875 -23.2476 2
      vertex 1.48215 -24.9708 2
    endloop
  endfacet
  facet normal 0 0 1
    outer loop
      vertex 1.48215 -24.9708 2
      vertex 1.15881 -23.5665 2
      vertex 1 -24.9123 2
    endloop
  endfacet
  facet normal 0 0 1
    outer loop
      vertex 3.75 -20 2
      vertex 3.66805 -20.7797 2
      vertex 4.54182 -22.8589 2
    endloop
  endfacet
  facet normal 0 0 1
    outer loop
      vertex 1 -25 2
      vertex 0.391982 -23.7295 2
      vertex -1 -24.9123 2
    endloop
  endfacet
  facet normal 0 0 1
    outer loop
      vertex 0.391982 -23.7295 2
      vertex -0.391982 -23.7295 2
      vertex -1 -24.9123 2
    endloop
  endfacet
  facet normal 0 0 1
    outer loop
      vertex 1.15881 -23.5665 2
      vertex 0.391982 -23.7295 2
      vertex 1 -24.9123 2
    endloop
  endfacet
  facet normal 0 0 1
    outer loop
      vertex -2.4 3.975 2
      vertex -1.69706 5.67206 2
      vertex -5 20 2
    endloop
  endfacet
  facet normal 0 0 1
    outer loop
      vertex -1 -24.9123 2
      vertex -1.875 -23.2476 2
      vertex -2.41842 -24.7401 2
    endloop
  endfacet
  facet normal 0 0 1
    outer loop
      vertex -2.41842 -24.7401 2
      vertex -3.42579 -21.5253 2
      vertex -3.66805 -20.7797 2
    endloop
  endfacet
  facet normal 0 0 1
    outer loop
      vertex -2.41842 -24.7401 2
      vertex -3.03381 -22.2042 2
      vertex -3.42579 -21.5253 2
    endloop
  endfacet
  facet normal 0 0 1
    outer loop
      vertex -8.25 24.7655 2
      vertex -9.125 24.7655 2
      vertex -10 23.25 2
    endloop
  endfacet
  facet normal 0 0 1
    outer loop
      vertex -6.6 21.3091 2
      vertex -7.73262 21.6771 2
      vertex -6.6 21.1 2
    endloop
  endfacet
  facet normal 0 0 1
    outer loop
      vertex -3.03381 -17.7958 2
      vertex -2.50924 -17.2132 2
      vertex -5 20 2
    endloop
  endfacet
  facet normal 0 0 1
    outer loop
      vertex -3.75 -20 2
      vertex -3.66805 -19.2203 2
      vertex -5 20 2
    endloop
  endfacet
  facet normal 0 0 1
    outer loop
      vertex -7.73262 21.6771 2
      vertex -7.73262 23.3229 2
      vertex -10 23.25 2
    endloop
  endfacet
  facet normal 0 -1 0
    outer loop
      vertex -9.125 20.2345 2
      vertex -9.125 20.2345 -2
      vertex -8.25 20.2345 -2
    endloop
  endfacet
  facet normal 0 -1 0
    outer loop
      vertex -8.25 20.2345 2
      vertex -9.125 20.2345 2
      vertex -8.25 20.2345 -2
    endloop
  endfacet
  facet normal -1 0 0
    outer loop
      vertex -8.25 20 -2
      vertex -8.25 20 2
      vertex -8.25 20.2345 -2
    endloop
  endfacet
  facet normal -1 0 0
    outer loop
      vertex -8.25 20.2345 -2
      vertex -8.25 20 2
      vertex -8.25 20.2345 2
    endloop
  endfacet
  facet normal 0 -1 0
    outer loop
      vertex -8.25 20 2
      vertex -8.25 20 -2
      vertex -5 20 -2
    endloop
  endfacet
  facet normal 0 -1 0
    outer loop
      vertex -5 20 2
      vertex -8.25 20 2
      vertex -5 20 -2
    endloop
  endfacet
  facet normal -1 0 0
    outer loop
      vertex -5 -21 -2
      vertex -5 -21 2
      vertex -5 20 -2
    endloop
  endfacet
  facet normal -1 0 0
    outer loop
      vertex -5 20 -2
      vertex -5 -21 2
      vertex -5 20 2
    endloop
  endfacet
  facet normal 0 -1 0
    outer loop
      vertex -5 -21 2
      vertex -5 -21 -2
      vertex -4.88377 -21 -2
    endloop
  endfacet
  facet normal 0 -1 0
    outer loop
      vertex -4.88377 -21 2
      vertex -5 -21 2
      vertex -4.88377 -21 -2
    endloop
  endfacet
  facet normal -1 0 0
    outer loop
      vertex -4.88377 -21.9573 -2
      vertex -4.88377 -21.9573 2
      vertex -4.88377 -21 -2
    endloop
  endfacet
  facet normal -1 0 0
    outer loop
      vertex -4.88377 -21 -2
      vertex -4.88377 -21.9573 2
      vertex -4.88377 -21 2
    endloop
  endfacet
  facet normal -0.885456 -0.464723 0
    outer loop
      vertex -4.88377 -21.9573 -2
      vertex -3.99404 -23.6525 -2
      vertex -4.88377 -21.9573 2
    endloop
  endfacet
  facet normal -0.885456 -0.464723 0
    outer loop
      vertex -4.88377 -21.9573 2
      vertex -3.99404 -23.6525 -2
      vertex -3.99404 -23.6525 2
    endloop
  endfacet
  facet normal -0.568065 -0.822984 0
    outer loop
      vertex -3.99404 -23.6525 2
      vertex -3.99404 -23.6525 -2
      vertex -2.41842 -24.7401 -2
    endloop
  endfacet
  facet normal -0.568065 -0.822984 0
    outer loop
      vertex -2.41842 -24.7401 2
      vertex -3.99404 -23.6525 2
      vertex -2.41842 -24.7401 -2
    endloop
  endfacet
  facet normal -0.120536 -0.992709 0
    outer loop
      vertex -2.41842 -24.7401 2
      vertex -2.41842 -24.7401 -2
      vertex -1 -24.9123 -2
    endloop
  endfacet
  facet normal -0.120536 -0.992709 0
    outer loop
      vertex -1 -24.9123 2
      vertex -2.41842 -24.7401 2
      vertex -1 -24.9123 -2
    endloop
  endfacet
  facet normal -1 0 0
    outer loop
      vertex -1 -25 -2
      vertex -1 -25 2
      vertex -1 -24.9123 -2
    endloop
  endfacet
  facet normal -1 0 0
    outer loop
      vertex -1 -24.9123 -2
      vertex -1 -25 2
      vertex -1 -24.9123 2
    endloop
  endfacet
  facet normal 0 -1 0
    outer loop
      vertex -1 -25 2
      vertex -1 -25 -2
      vertex 1 -25 -2
    endloop
  endfacet
  facet normal 0 -1 0
    outer loop
      vertex 1 -25 2
      vertex -1 -25 2
      vertex 1 -25 -2
    endloop
  endfacet
  facet normal 1 0 0
    outer loop
      vertex 1 -25 2
      vertex 1 -25 -2
      vertex 1 -24.9123 -2
    endloop
  endfacet
  facet normal 1 0 0
    outer loop
      vertex 1 -24.9123 2
      vertex 1 -25 2
      vertex 1 -24.9123 -2
    endloop
  endfacet
  facet normal -0.120536 -0.992709 0
    outer loop
      vertex 1 -24.9123 2
      vertex 1 -24.9123 -2
      vertex 1.48215 -24.9708 -2
    endloop
  endfacet
  facet normal -0.120536 -0.992709 0
    outer loop
      vertex 1.48215 -24.9708 2
      vertex 1 -24.9123 2
      vertex 1.48215 -24.9708 -2
    endloop
  endfacet
  facet normal 0.354605 -0.935016 0
    outer loop
      vertex 1.48215 -24.9708 2
      vertex 1.48215 -24.9708 -2
      vertex 3.27226 -24.2919 -2
    endloop
  endfacet
  facet normal 0.354605 -0.935016 0
    outer loop
      vertex 3.27226 -24.2919 2
      vertex 1.48215 -24.9708 2
      vertex 3.27226 -24.2919 -2
    endloop
  endfacet
  facet normal 0.748511 -0.663123 0
    outer loop
      vertex 3.27226 -24.2919 2
      vertex 3.27226 -24.2919 -2
      vertex 4.54182 -22.8589 -2
    endloop
  endfacet
  facet normal 0.748511 -0.663123 0
    outer loop
      vertex 4.54182 -22.8589 2
      vertex 3.27226 -24.2919 2
      vertex 4.54182 -22.8589 -2
    endloop
  endfacet
  facet normal 0.970942 -0.239316 0
    outer loop
      vertex 4.54182 -22.8589 2
      vertex 4.54182 -22.8589 -2
      vertex 5 -21 -2
    endloop
  endfacet
  facet normal 0.970942 -0.239316 0
    outer loop
      vertex 5 -21 2
      vertex 4.54182 -22.8589 2
      vertex 5 -21 -2
    endloop
  endfacet
  facet normal 1 0 0
    outer loop
      vertex 5 -21 2
      vertex 5 -21 -2
      vertex 5 20 -2
    endloop
  endfacet
  facet normal 1 0 0
    outer loop
      vertex 5 20 2
      vertex 5 -21 2
      vertex 5 20 -2
    endloop
  endfacet
  facet normal 0 -1 0
    outer loop
      vertex 5 20 2
      vertex 5 20 -2
      vertex 8.25 20 -2
    endloop
  endfacet
  facet normal 0 -1 0
    outer loop
      vertex 8.25 20 2
      vertex 5 20 2
      vertex 8.25 20 -2
    endloop
  endfacet
  facet normal 1 0 0
    outer loop
      vertex 8.25 20 2
      vertex 8.25 20 -2
      vertex 8.25 20.2345 -2
    endloop
  endfacet
  facet normal 1 0 0
    outer loop
      vertex 8.25 20.2345 2
      vertex 8.25 20 2
      vertex 8.25 20.2345 -2
    endloop
  endfacet
  facet normal 0 -1 0
    outer loop
      vertex 8.25 20.2345 2
      vertex 8.25 20.2345 -2
      vertex 9.125 20.2345 -2
    endloop
  endfacet
  facet normal 0 -1 0
    outer loop
      vertex 9.125 20.2345 2
      vertex 8.25 20.2345 2
      vertex 9.125 20.2345 -2
    endloop
  endfacet
  facet normal 0.866025 -0.5 0
    outer loop
      vertex 9.125 20.2345 2
      vertex 9.125 20.2345 -2
      vertex 10 21.75 -2
    endloop
  endfacet
  facet normal 0.866025 -0.5 0
    outer loop
      vertex 10 21.75 2
      vertex 9.125 20.2345 2
      vertex 10 21.75 -2
    endloop
  endfacet
  facet normal 1 0 0
    outer loop
      vertex 10 21.75 2
      vertex 10 21.75 -2
      vertex 10 23.25 -2
    endloop
  endfacet
  facet normal 1 0 0
    outer loop
      vertex 10 23.25 2
      vertex 10 21.75 2
      vertex 10 23.25 -2
    endloop
  endfacet
  facet normal 0.866025 0.5 0
    outer loop
      vertex 10 23.25 -2
      vertex 9.125 24.7655 -2
      vertex 9.125 24.7655 2
    endloop
  endfacet
  facet normal 0.866025 0.5 0
    outer loop
      vertex 10 23.25 2
      vertex 10 23.25 -2
      vertex 9.125 24.7655 2
    endloop
  endfacet
  facet normal 0 1 0
    outer loop
      vertex 8.25 24.7655 -2
      vertex 8.25 24.7655 2
      vertex 9.125 24.7655 -2
    endloop
  endfacet
  facet normal 0 1 0
    outer loop
      vertex 9.125 24.7655 -2
      vertex 8.25 24.7655 2
      vertex 9.125 24.7655 2
    endloop
  endfacet
  facet normal 1 0 0
    outer loop
      vertex 8.25 24.7655 2
      vertex 8.25 24.7655 -2
      vertex 8.25 25 -2
    endloop
  endfacet
  facet normal 1 0 0
    outer loop
      vertex 8.25 25 2
      vertex 8.25 24.7655 2
      vertex 8.25 25 -2
    endloop
  endfacet
  facet normal 0 1 0
    outer loop
      vertex -8.25 25 -2
      vertex -8.25 25 2
      vertex 8.25 25 -2
    endloop
  endfacet
  facet normal 0 1 0
    outer loop
      vertex 8.25 25 -2
      vertex -8.25 25 2
      vertex 8.25 25 2
    endloop
  endfacet
  facet normal -1 0 0
    outer loop
      vertex -8.25 24.7655 -2
      vertex -8.25 24.7655 2
      vertex -8.25 25 -2
    endloop
  endfacet
  facet normal -1 0 0
    outer loop
      vertex -8.25 25 -2
      vertex -8.25 24.7655 2
      vertex -8.25 25 2
    endloop
  endfacet
  facet normal 0 1 0
    outer loop
      vertex -9.125 24.7655 -2
      vertex -9.125 24.7655 2
      vertex -8.25 24.7655 -2
    endloop
  endfacet
  facet normal 0 1 0
    outer loop
      vertex -8.25 24.7655 -2
      vertex -9.125 24.7655 2
      vertex -8.25 24.7655 2
    endloop
  endfacet
  facet normal 0.309017 -0.951056 0
    outer loop
      vertex -6.6 23.6909 -2
      vertex -6.6 23.6909 2
      vertex -7.73262 23.3229 2
    endloop
  endfacet
  facet normal 0.309017 -0.951056 0
    outer loop
      vertex -7.73262 23.3229 -2
      vertex -6.6 23.6909 -2
      vertex -7.73262 23.3229 2
    endloop
  endfacet
  facet normal 1 0 0
    outer loop
      vertex -7.73262 23.3229 -2
      vertex -7.73262 23.3229 2
      vertex -7.73262 21.6771 2
    endloop
  endfacet
  facet normal 1 0 0
    outer loop
      vertex -7.73262 21.6771 -2
      vertex -7.73262 23.3229 -2
      vertex -7.73262 21.6771 2
    endloop
  endfacet
  facet normal 1 0 0
    outer loop
      vertex -6.6 23.9 -2
      vertex -6.6 23.9 2
      vertex -6.6 23.6909 2
    endloop
  endfacet
  facet normal 1 0 0
    outer loop
      vertex -6.6 23.6909 -2
      vertex -6.6 23.9 -2
      vertex -6.6 23.6909 2
    endloop
  endfacet
  facet normal 0 -1 0
    outer loop
      vertex 6.6 23.9 -2
      vertex 6.6 23.9 2
      vertex -6.6 23.9 2
    endloop
  endfacet
  facet normal 0 -1 0
    outer loop
      vertex -6.6 23.9 -2
      vertex 6.6 23.9 -2
      vertex -6.6 23.9 2
    endloop
  endfacet
  facet normal -1 0 0
    outer loop
      vertex 6.6 23.9 2
      vertex 6.6 23.9 -2
      vertex 6.6 23.6909 2
    endloop
  endfacet
  facet normal -1 0 0
    outer loop
      vertex 6.6 23.6909 2
      vertex 6.6 23.9 -2
      vertex 6.6 23.6909 -2
    endloop
  endfacet
  facet normal 0.309017 -0.951056 0
    outer loop
      vertex 7.03262 23.8315 -2
      vertex 7.03262 23.8315 2
      vertex 6.6 23.6909 2
    endloop
  endfacet
  facet normal 0.309017 -0.951056 0
    outer loop
      vertex 6.6 23.6909 -2
      vertex 7.03262 23.8315 -2
      vertex 6.6 23.6909 2
    endloop
  endfacet
  facet normal -0.809017 -0.587785 0
    outer loop
      vertex 8 22.5 2
      vertex 7.03262 23.8315 2
      vertex 8 22.5 -2
    endloop
  endfacet
  facet normal -0.809017 -0.587785 0
    outer loop
      vertex 8 22.5 -2
      vertex 7.03262 23.8315 2
      vertex 7.03262 23.8315 -2
    endloop
  endfacet
  facet normal -0.809017 0.587785 0
    outer loop
      vertex 8 22.5 2
      vertex 8 22.5 -2
      vertex 7.03262 21.1685 2
    endloop
  endfacet
  facet normal -0.809017 0.587785 0
    outer loop
      vertex 7.03262 21.1685 2
      vertex 8 22.5 -2
      vertex 7.03262 21.1685 -2
    endloop
  endfacet
  facet normal 0.309017 0.951056 0
    outer loop
      vertex 7.03262 21.1685 2
      vertex 7.03262 21.1685 -2
      vertex 6.6 21.3091 2
    endloop
  endfacet
  facet normal 0.309017 0.951056 0
    outer loop
      vertex 6.6 21.3091 2
      vertex 7.03262 21.1685 -2
      vertex 6.6 21.3091 -2
    endloop
  endfacet
  facet normal -1 0 0
    outer loop
      vertex 6.6 21.3091 2
      vertex 6.6 21.3091 -2
      vertex 6.6 21.1 2
    endloop
  endfacet
  facet normal -1 0 0
    outer loop
      vertex 6.6 21.1 2
      vertex 6.6 21.3091 -2
      vertex 6.6 21.1 -2
    endloop
  endfacet
  facet normal 0 1 0
    outer loop
      vertex 6.6 21.1 2
      vertex 6.6 21.1 -2
      vertex -6.6 21.1 2
    endloop
  endfacet
  facet normal 0 1 0
    outer loop
      vertex -6.6 21.1 2
      vertex 6.6 21.1 -2
      vertex -6.6 21.1 -2
    endloop
  endfacet
  facet normal 1 0 0
    outer loop
      vertex -6.6 21.3091 -2
      vertex -6.6 21.3091 2
      vertex -6.6 21.1 2
    endloop
  endfacet
  facet normal 1 0 0
    outer loop
      vertex -6.6 21.1 -2
      vertex -6.6 21.3091 -2
      vertex -6.6 21.1 2
    endloop
  endfacet
  facet normal 0.309017 0.951056 0
    outer loop
      vertex -6.6 21.3091 2
      vertex -6.6 21.3091 -2
      vertex -7.73262 21.6771 2
    endloop
  endfacet
  facet normal 0.309017 0.951056 0
    outer loop
      vertex -7.73262 21.6771 2
      vertex -6.6 21.3091 -2
      vertex -7.73262 21.6771 -2
    endloop
  endfacet
  facet normal 0.994522 -0.104528 0
    outer loop
      vertex -3.66805 -19.2203 -2
      vertex -3.66805 -19.2203 2
      vertex -3.75 -20 2
    endloop
  endfacet
  facet normal 0.994522 -0.104528 0
    outer loop
      vertex -3.75 -20 -2
      vertex -3.66805 -19.2203 -2
      vertex -3.75 -20 2
    endloop
  endfacet
  facet normal 0.994522 0.104528 0
    outer loop
      vertex -3.75 -20 2
      vertex -3.66805 -20.7797 2
      vertex -3.66805 -20.7797 -2
    endloop
  endfacet
  facet normal 0.994522 0.104528 0
    outer loop
      vertex -3.75 -20 -2
      vertex -3.75 -20 2
      vertex -3.66805 -20.7797 -2
    endloop
  endfacet
  facet normal 0.951056 -0.309018 0
    outer loop
      vertex -3.42579 -18.4747 -2
      vertex -3.42579 -18.4747 2
      vertex -3.66805 -19.2203 2
    endloop
  endfacet
  facet normal 0.951056 -0.309018 0
    outer loop
      vertex -3.66805 -19.2203 -2
      vertex -3.42579 -18.4747 -2
      vertex -3.66805 -19.2203 2
    endloop
  endfacet
  facet normal 0.866026 -0.499999 0
    outer loop
      vertex -3.03381 -17.7958 -2
      vertex -3.03381 -17.7958 2
      vertex -3.42579 -18.4747 2
    endloop
  endfacet
  facet normal 0.866026 -0.499999 0
    outer loop
      vertex -3.42579 -18.4747 -2
      vertex -3.03381 -17.7958 -2
      vertex -3.42579 -18.4747 2
    endloop
  endfacet
  facet normal 0.743145 -0.669131 0
    outer loop
      vertex -2.50924 -17.2132 -2
      vertex -2.50924 -17.2132 2
      vertex -3.03381 -17.7958 2
    endloop
  endfacet
  facet normal 0.743145 -0.669131 0
    outer loop
      vertex -3.03381 -17.7958 -2
      vertex -2.50924 -17.2132 -2
      vertex -3.03381 -17.7958 2
    endloop
  endfacet
  facet normal 0.587785 -0.809017 0
    outer loop
      vertex -1.875 -16.7524 -2
      vertex -1.875 -16.7524 0.5
      vertex -2.4 -17.1338 0.5
    endloop
  endfacet
  facet normal 0.587785 -0.809017 0
    outer loop
      vertex -2.50924 -17.2132 -2
      vertex -1.875 -16.7524 -2
      vertex -2.4 -17.1338 0.5
    endloop
  endfacet
  facet normal 0.587785 -0.809017 0
    outer loop
      vertex -2.4 -17.1338 2
      vertex -2.50924 -17.2132 2
      vertex -2.4 -17.1338 0.5
    endloop
  endfacet
  facet normal 0.587785 -0.809017 0
    outer loop
      vertex -2.50924 -17.2132 2
      vertex -2.50924 -17.2132 -2
      vertex -2.4 -17.1338 0.5
    endloop
  endfacet
  facet normal 0.406737 -0.913545 0
    outer loop
      vertex -1.15881 -16.4335 -2
      vertex -1.15881 -16.4335 0.5
      vertex -1.875 -16.7524 0.5
    endloop
  endfacet
  facet normal 0.406737 -0.913545 0
    outer loop
      vertex -1.875 -16.7524 -2
      vertex -1.15881 -16.4335 -2
      vertex -1.875 -16.7524 0.5
    endloop
  endfacet
  facet normal 0.207911 -0.978148 0
    outer loop
      vertex -0.391982 -16.2705 -2
      vertex -0.391982 -16.2705 0.5
      vertex -1.15881 -16.4335 0.5
    endloop
  endfacet
  facet normal 0.207911 -0.978148 0
    outer loop
      vertex -1.15881 -16.4335 -2
      vertex -0.391982 -16.2705 -2
      vertex -1.15881 -16.4335 0.5
    endloop
  endfacet
  facet normal 0 -1 0
    outer loop
      vertex 0.391982 -16.2705 -2
      vertex 0.391982 -16.2705 0.5
      vertex -0.391982 -16.2705 0.5
    endloop
  endfacet
  facet normal 0 -1 0
    outer loop
      vertex -0.391982 -16.2705 -2
      vertex 0.391982 -16.2705 -2
      vertex -0.391982 -16.2705 0.5
    endloop
  endfacet
  facet normal -0.207911 -0.978148 0
    outer loop
      vertex 1.15881 -16.4335 -2
      vertex 1.15881 -16.4335 0.5
      vertex 0.391982 -16.2705 0.5
    endloop
  endfacet
  facet normal -0.207911 -0.978148 0
    outer loop
      vertex 0.391982 -16.2705 -2
      vertex 1.15881 -16.4335 -2
      vertex 0.391982 -16.2705 0.5
    endloop
  endfacet
  facet normal -0.406737 -0.913545 0
    outer loop
      vertex 1.875 -16.7524 -2
      vertex 1.875 -16.7524 0.5
      vertex 1.15881 -16.4335 0.5
    endloop
  endfacet
  facet normal -0.406737 -0.913545 0
    outer loop
      vertex 1.15881 -16.4335 -2
      vertex 1.875 -16.7524 -2
      vertex 1.15881 -16.4335 0.5
    endloop
  endfacet
  facet normal -0.587785 -0.809017 0
    outer loop
      vertex 2.50924 -17.2132 -2
      vertex 2.50924 -17.2132 2
      vertex 2.4 -17.1338 2
    endloop
  endfacet
  facet normal -0.587785 -0.809017 0
    outer loop
      vertex 1.875 -16.7524 0.5
      vertex 2.50924 -17.2132 -2
      vertex 2.4 -17.1338 0.5
    endloop
  endfacet
  facet normal -0.587785 -0.809017 0
    outer loop
      vertex 2.4 -17.1338 0.5
      vertex 2.50924 -17.2132 -2
      vertex 2.4 -17.1338 2
    endloop
  endfacet
  facet normal -0.587785 -0.809017 0
    outer loop
      vertex 1.875 -16.7524 -2
      vertex 2.50924 -17.2132 -2
      vertex 1.875 -16.7524 0.5
    endloop
  endfacet
  facet normal -0.743145 -0.669131 0
    outer loop
      vertex 3.03381 -17.7958 2
      vertex 2.50924 -17.2132 2
      vertex 3.03381 -17.7958 -2
    endloop
  endfacet
  facet normal -0.743145 -0.669131 0
    outer loop
      vertex 3.03381 -17.7958 -2
      vertex 2.50924 -17.2132 2
      vertex 2.50924 -17.2132 -2
    endloop
  endfacet
  facet normal -0.866026 -0.499999 0
    outer loop
      vertex 3.42579 -18.4747 2
      vertex 3.03381 -17.7958 2
      vertex 3.42579 -18.4747 -2
    endloop
  endfacet
  facet normal -0.866026 -0.499999 0
    outer loop
      vertex 3.42579 -18.4747 -2
      vertex 3.03381 -17.7958 2
      vertex 3.03381 -17.7958 -2
    endloop
  endfacet
  facet normal -0.951056 -0.309018 0
    outer loop
      vertex 3.66805 -19.2203 2
      vertex 3.42579 -18.4747 2
      vertex 3.66805 -19.2203 -2
    endloop
  endfacet
  facet normal -0.951056 -0.309018 0
    outer loop
      vertex 3.66805 -19.2203 -2
      vertex 3.42579 -18.4747 2
      vertex 3.42579 -18.4747 -2
    endloop
  endfacet
  facet normal -0.994522 -0.104528 0
    outer loop
      vertex 3.75 -20 2
      vertex 3.66805 -19.2203 2
      vertex 3.75 -20 -2
    endloop
  endfacet
  facet normal -0.994522 -0.104528 0
    outer loop
      vertex 3.75 -20 -2
      vertex 3.66805 -19.2203 2
      vertex 3.66805 -19.2203 -2
    endloop
  endfacet
  facet normal -0.994522 0.104528 0
    outer loop
      vertex 3.75 -20 2
      vertex 3.75 -20 -2
      vertex 3.66805 -20.7797 2
    endloop
  endfacet
  facet normal -0.994522 0.104528 0
    outer loop
      vertex 3.66805 -20.7797 2
      vertex 3.75 -20 -2
      vertex 3.66805 -20.7797 -2
    endloop
  endfacet
  facet normal -0.951056 0.309018 0
    outer loop
      vertex 3.66805 -20.7797 2
      vertex 3.66805 -20.7797 -2
      vertex 3.42579 -21.5253 2
    endloop
  endfacet
  facet normal -0.951056 0.309018 0
    outer loop
      vertex 3.42579 -21.5253 2
      vertex 3.66805 -20.7797 -2
      vertex 3.42579 -21.5253 -2
    endloop
  endfacet
  facet normal -0.866026 0.499999 0
    outer loop
      vertex 3.42579 -21.5253 2
      vertex 3.42579 -21.5253 -2
      vertex 3.03381 -22.2042 2
    endloop
  endfacet
  facet normal -0.866026 0.499999 0
    outer loop
      vertex 3.03381 -22.2042 2
      vertex 3.42579 -21.5253 -2
      vertex 3.03381 -22.2042 -2
    endloop
  endfacet
  facet normal -0.743145 0.669131 0
    outer loop
      vertex 3.03381 -22.2042 2
      vertex 3.03381 -22.2042 -2
      vertex 2.50924 -22.7868 2
    endloop
  endfacet
  facet normal -0.743145 0.669131 0
    outer loop
      vertex 2.50924 -22.7868 2
      vertex 3.03381 -22.2042 -2
      vertex 2.50924 -22.7868 -2
    endloop
  endfacet
  facet normal -0.587785 0.809017 0
    outer loop
      vertex 2.50924 -22.7868 2
      vertex 2.50924 -22.7868 -2
      vertex 1.875 -23.2476 2
    endloop
  endfacet
  facet normal -0.587785 0.809017 0
    outer loop
      vertex 1.875 -23.2476 2
      vertex 2.50924 -22.7868 -2
      vertex 1.875 -23.2476 -2
    endloop
  endfacet
  facet normal -0.406737 0.913545 0
    outer loop
      vertex 1.875 -23.2476 2
      vertex 1.875 -23.2476 -2
      vertex 1.15881 -23.5665 2
    endloop
  endfacet
  facet normal -0.406737 0.913545 0
    outer loop
      vertex 1.15881 -23.5665 2
      vertex 1.875 -23.2476 -2
      vertex 1.15881 -23.5665 -2
    endloop
  endfacet
  facet normal -0.207911 0.978148 0
    outer loop
      vertex 1.15881 -23.5665 2
      vertex 1.15881 -23.5665 -2
      vertex 0.391982 -23.7295 2
    endloop
  endfacet
  facet normal -0.207911 0.978148 0
    outer loop
      vertex 0.391982 -23.7295 2
      vertex 1.15881 -23.5665 -2
      vertex 0.391982 -23.7295 -2
    endloop
  endfacet
  facet normal 0 1 0
    outer loop
      vertex 0.391982 -23.7295 2
      vertex 0.391982 -23.7295 -2
      vertex -0.391982 -23.7295 2
    endloop
  endfacet
  facet normal 0 1 0
    outer loop
      vertex -0.391982 -23.7295 2
      vertex 0.391982 -23.7295 -2
      vertex -0.391982 -23.7295 -2
    endloop
  endfacet
  facet normal 0.207911 0.978148 0
    outer loop
      vertex -0.391982 -23.7295 2
      vertex -0.391982 -23.7295 -2
      vertex -1.15881 -23.5665 2
    endloop
  endfacet
  facet normal 0.207911 0.978148 0
    outer loop
      vertex -1.15881 -23.5665 2
      vertex -0.391982 -23.7295 -2
      vertex -1.15881 -23.5665 -2
    endloop
  endfacet
  facet normal 0.406737 0.913545 0
    outer loop
      vertex -1.15881 -23.5665 2
      vertex -1.15881 -23.5665 -2
      vertex -1.875 -23.2476 2
    endloop
  endfacet
  facet normal 0.406737 0.913545 0
    outer loop
      vertex -1.875 -23.2476 2
      vertex -1.15881 -23.5665 -2
      vertex -1.875 -23.2476 -2
    endloop
  endfacet
  facet normal 0.587785 0.809017 0
    outer loop
      vertex -1.875 -23.2476 2
      vertex -1.875 -23.2476 -2
      vertex -2.50924 -22.7868 2
    endloop
  endfacet
  facet normal 0.587785 0.809017 0
    outer loop
      vertex -2.50924 -22.7868 2
      vertex -1.875 -23.2476 -2
      vertex -2.50924 -22.7868 -2
    endloop
  endfacet
  facet normal 0.743145 0.669131 0
    outer loop
      vertex -3.03381 -22.2042 2
      vertex -2.50924 -22.7868 2
      vertex -2.50924 -22.7868 -2
    endloop
  endfacet
  facet normal 0.743145 0.669131 0
    outer loop
      vertex -3.03381 -22.2042 -2
      vertex -3.03381 -22.2042 2
      vertex -2.50924 -22.7868 -2
    endloop
  endfacet
  facet normal 0.866026 0.499999 0
    outer loop
      vertex -3.42579 -21.5253 2
      vertex -3.03381 -22.2042 2
      vertex -3.03381 -22.2042 -2
    endloop
  endfacet
  facet normal 0.866026 0.499999 0
    outer loop
      vertex -3.42579 -21.5253 -2
      vertex -3.42579 -21.5253 2
      vertex -3.03381 -22.2042 -2
    endloop
  endfacet
  facet normal 0.951056 0.309018 0
    outer loop
      vertex -3.66805 -20.7797 2
      vertex -3.42579 -21.5253 2
      vertex -3.42579 -21.5253 -2
    endloop
  endfacet
  facet normal 0.951056 0.309018 0
    outer loop
      vertex -3.66805 -20.7797 -2
      vertex -3.66805 -20.7797 2
      vertex -3.42579 -21.5253 -2
    endloop
  endfacet
  facet normal -1 0 0
    outer loop
      vertex 2.4 3.975 2
      vertex 2.4 3.975 0.5
      vertex 2.4 -17.1338 2
    endloop
  endfacet
  facet normal -1 0 0
    outer loop
      vertex 2.4 -17.1338 2
      vertex 2.4 3.975 0.5
      vertex 2.4 -17.1338 0.5
    endloop
  endfacet
  facet normal -0.923879 -0.382684 0
    outer loop
      vertex 2.4 3.975 2
      vertex 1.69706 5.67206 2
      vertex 2.4 3.975 0.5
    endloop
  endfacet
  facet normal -0.923879 -0.382684 0
    outer loop
      vertex 2.4 3.975 0.5
      vertex 1.69706 5.67206 2
      vertex 1.69706 5.67206 0.5
    endloop
  endfacet
  facet normal -0.382684 -0.923879 0
    outer loop
      vertex 1.69706 5.67206 0.5
      vertex 1.69706 5.67206 2
      vertex 0 6.375 2
    endloop
  endfacet
  facet normal -0.382684 -0.923879 0
    outer loop
      vertex 0 6.375 0.5
      vertex 1.69706 5.67206 0.5
      vertex 0 6.375 2
    endloop
  endfacet
  facet normal 0.382684 -0.923879 0
    outer loop
      vertex 0 6.375 0.5
      vertex 0 6.375 2
      vertex -1.69706 5.67206 2
    endloop
  endfacet
  facet normal 0.382684 -0.923879 0
    outer loop
      vertex -1.69706 5.67206 0.5
      vertex 0 6.375 0.5
      vertex -1.69706 5.67206 2
    endloop
  endfacet
  facet normal 0.923879 -0.382684 0
    outer loop
      vertex -1.69706 5.67206 0.5
      vertex -1.69706 5.67206 2
      vertex -2.4 3.975 2
    endloop
  endfacet
  facet normal 0.923879 -0.382684 0
    outer loop
      vertex -2.4 3.975 0.5
      vertex -1.69706 5.67206 0.5
      vertex -2.4 3.975 2
    endloop
  endfacet
  facet normal 1 0 0
    outer loop
      vertex -2.4 3.975 0.5
      vertex -2.4 3.975 2
      vertex -2.4 -17.1338 2
    endloop
  endfacet
  facet normal 1 0 0
    outer loop
      vertex -2.4 -17.1338 0.5
      vertex -2.4 3.975 0.5
      vertex -2.4 -17.1338 2
    endloop
  endfacet
  facet normal 0 0 1
    outer loop
      vertex 2.4 3.975 0.5
      vertex -1.15881 -16.4335 0.5
      vertex -0.391982 -16.2705 0.5
    endloop
  endfacet
  facet normal 0 0 1
    outer loop
      vertex 1.15881 -16.4335 0.5
      vertex 2.4 3.975 0.5
      vertex 0.391982 -16.2705 0.5
    endloop
  endfacet
  facet normal 0 0 1
    outer loop
      vertex 0.391982 -16.2705 0.5
      vertex 2.4 3.975 0.5
      vertex -0.391982 -16.2705 0.5
    endloop
  endfacet
  facet normal 0 0 1
    outer loop
      vertex -1.875 -16.7524 0.5
      vertex -1.15881 -16.4335 0.5
      vertex 2.4 3.975 0.5
    endloop
  endfacet
  facet normal 0 0 1
    outer loop
      vertex 1.875 -16.7524 0.5
      vertex 2.4 3.975 0.5
      vertex 1.15881 -16.4335 0.5
    endloop
  endfacet
  facet normal 0 0 1
    outer loop
      vertex 2.4 -17.1338 0.5
      vertex 2.4 3.975 0.5
      vertex 1.875 -16.7524 0.5
    endloop
  endfacet
  facet normal 0 0 1
    outer loop
      vertex 2.4 3.975 0.5
      vertex 1.69706 5.67206 0.5
      vertex -1.875 -16.7524 0.5
    endloop
  endfacet
  facet normal 0 0 1
    outer loop
      vertex 1.69706 5.67206 0.5
      vertex 0 6.375 0.5
      vertex -1.875 -16.7524 0.5
    endloop
  endfacet
  facet normal 0 0 1
    outer loop
      vertex 0 6.375 0.5
      vertex -1.69706 5.67206 0.5
      vertex -1.875 -16.7524 0.5
    endloop
  endfacet
  facet normal 0 0 1
    outer loop
      vertex -1.69706 5.67206 0.5
      vertex -2.4 3.975 0.5
      vertex -1.875 -16.7524 0.5
    endloop
  endfacet
  facet normal 0 0 1
    outer loop
      vertex -2.4 3.975 0.5
      vertex -2.4 -17.1338 0.5
      vertex -1.875 -16.7524 0.5
    endloop
  endfacet
endsolid OpenSCAD_Model
